<svg xmlns="http://www.w3.org/2000/svg" viewBox="0 0 704 704" fill="none" shape-rendering="auto" width="400" height="400"><metadata xmlns:rdf="http://www.w3.org/1999/02/22-rdf-syntax-ns#" xmlns:xsi="http://www.w3.org/2001/XMLSchema-instance" xmlns:dc="http://purl.org/dc/elements/1.1/" xmlns:dcterms="http://purl.org/dc/terms/"><rdf:RDF><rdf:Description><dc:title>Open Peeps</dc:title><dc:creator>Pablo Stanley</dc:creator><dc:source xsi:type="dcterms:URI">https://www.openpeeps.com/</dc:source><dcterms:license xsi:type="dcterms:URI">https://creativecommons.org/publicdomain/zero/1.0/</dcterms:license><dc:rights>Remix of „Open Peeps” (https://www.openpeeps.com/) by „Pablo Stanley”, licensed under „CC0 1.0” (https://creativecommons.org/publicdomain/zero/1.0/)</dc:rights></rdf:Description></rdf:RDF></metadata><mask id="viewboxMask"><rect width="704" height="704" rx="0" ry="0" x="0" y="0" fill="#fff" /></mask><g mask="url(#viewboxMask)"><g fill-rule="evenodd" clip-rule="evenodd"><path d="M705.3 1074a2351.1 2351.1 0 0 1-15.6-101c-1-7.7-2.5-16.4 2.7-22 7.3-8 14-14.8 14.8-26.2.8-10.7-2.8-22.4-5-32.8a809.4 809.4 0 0 0-17.3-64.7c-6.6-21.7-13.9-43.2-21.3-64.6-6.9-20-13.5-40.3-22.5-59.5-17-36.5-46-63.5-81.6-81.6-9-4.5-27-20.5-36.3-24-8.5-3.4-8.5 6.3-16.9 2.6-6.7-2.9-13-6.7-16.7-13.2-4-7-14.3-16.9-15.9-25-3.3-17.4.3-32.2-12-45.3a90 90 0 0 0-41.1-23.8c-33.7-9.3-78.5-2.8-98.8 28.5-9.7 14.9-13 33-26.2 45.1-11.4 10.7-8.8 18-23.6 23.4-.9.3-23.6-4.5-24.4-4.2-16.2-3.5-31.7 6.2-46.5 11.8a325.4 325.4 0 0 0-63 32.3 399.2 399.2 0 0 0-102.3 98.5 482.5 482.5 0 0 0-76.4 161c-1.7 6.4-3.5 13-1.5 19.4 1.7 5.3 5.4 9.2 9.8 12.4 6 4.3 18 7 17.7 15.7-.1 6.6-2.4 13.5-3.5 20-1.3 7.7-2.3 15.5-3.4 23.2-4.8 35.4-8.6 71-10.3 106.6a920 920 0 0 0-.5 106c.1 2.3.8 4.5 2 6.2-1 .4-1.2 2.4.1 2.7l2.7.5a12 12 0 0 0 7 2.4l5.5.2c19.3 4 38.6 7.9 58.1 10.8 23.8 3.5 47.6 6.3 71.5 8.7 49.2 4.8 98 3.2 147.1.6a1877 1877 0 0 1 147.4-2c49.2 1.4 98.4 3.5 147.6 4.4 55 1 110-.5 164.8-5 7.5-.5 12.2-6.5 10.7-14-8.9-44.7-19-89.1-27-134Z" fill="#edb98a"/><path d="m201 597.5 1.2-.4c14.5-5.7 29.6-14.8 45.4-11.4.5-.2 10.8 1.9 17.9 3.2l-6.7 7L247 598c40.7 67.1 88.8 100.7 144.3 100.7 55.5 0 97.7-33.6 126.4-100.7l4-1c.4 0 1 .2 1.5.4 9.3 3.6 27.4 19.6 36.3 24.1 35.6 18 64.5 45 81.6 81.6 8.7 18.6 15.2 38 21.8 57.5l.7 2c7.4 21.4 14.7 43 21.3 64.6 6.3 20.4 12 41 16.6 61.8l.7 2.9c2.2 10.4 5.8 22 5 32.8a29 29 0 0 1-3 10.7l-80.4 29 38.4 261.3c-35.1 1.5-70.3 2-105.5 1.3-49.2-.9-98.4-3-147.6-4.3-47.7-1.2-95.3-.7-143 1.7l-12 .6a946.3 946.3 0 0 1-139.5-1l-3.1-.3v-38.3l16.3-212.9-83-15.6-81.3-39.5a21.7 21.7 0 0 1-5.6-8.8c-1.9-6-.5-12 1-18l.5-1.3a492.8 492.8 0 0 1 76.4-161A399.3 399.3 0 0 1 138 629.7c19.8-13 40.9-23.9 63-32.3Z" fill="#ffcf77"/><path d="M232.2 584.6c5.1-.3 10.3.6 15.4 1 .4.1.6.8 0 .9-9 1.9-18 4.5-26.9 7.1l-3.8 1.2c-10 3-19.8 6-29.6 10-19.4 7.9-37.8 18.5-54.8 30.8C67.2 682.8 20 754.3-9.9 828.3a526 526 0 0 0-24.3 77c-.4 1.6-2 5.4-1 7 .7 1.3 3.6 2.1 5 2.9l4.5 2.3 25.2 12.9 2.3 1.1c38 18.6 78.4 34.4 121 35.5l.4-3.7a342 342 0 0 1 9.9-60c.3-1 1.6-.6 1.7.3 3 23.1 2 46.4 1 69.7-1.8 41-4.3 82.2-6.5 123.3-1.2 20.6-2.6 41-3.9 61.7-1.3 20.5-1.7 41.6-4.7 62-.6 4.6-6 7-10 6.6-4.4-.5-7.9-4.5-8-9 0-11.9 1.5-24 2.4-35.8l2.5-33.8c3.1-41.1 6.8-82.2 10.2-123.3a4771 4771 0 0 1 3.8-43.7C76.4 979.8 34.2 963-6.1 943.5c-.6 13.2-2 26.5-3.4 39.6-3.8 36.8-7.1 73.6-9.6 110.5a2254.2 2254.2 0 0 0-4.2 92.7l-.2 7c0 4.4-.5 8.5-4.3 11.7-3.7 3.3-8.9 3.5-12.6 0-5-4.6-4.2-10.9-4-17.1a1675.6 1675.6 0 0 1 1.8-47.2 1321 1321 0 0 1 10.5-109.5l2-14c3.5-26 7.5-52.7 15.5-77.9-3.1-1.5-6.2-3-9.3-4.7-5.5-2.7-11.2-5.4-16.6-8.4-4.2-2.5-7.9-5.8-9-10.8-1.4-5.5.6-11.5 2-16.9v-.4a502 502 0 0 1 26.6-80 523.2 523.2 0 0 1 67.8-117 353.8 353.8 0 0 1 88.7-83.3 239 239 0 0 1 53.8-25.7 142.6 142.6 0 0 1 42.8-7.5Zm90.1-66c6-6.5 18.1.2 15.2 8.8a108.2 108.2 0 0 1-34.7 52A79.4 79.4 0 0 1 247 598l1.7 2.4a321.1 321.1 0 0 0 46.1 52.6c36 31.2 84.8 48 132 36 37.1-9.4 69.8-38.8 79.4-76.2-1.3.6-3 .9-4.8.5-7.7-1.7-15.3-9.8-20.3-15.6-5.3-6.3-9.5-13-12.6-20.7-5.6-14-7.4-32.1.3-45.7 1-1.7 3-.7 3.3 1l.3 2.5c1.5 12.7 3.3 25 9.3 36.6a76 76 0 0 0 18.2 23.1c2.6 2 5.8 3.6 8.1 6l.5.4c.6-5 4.1-7.3 7.6-7.2 3.3.2 7.3 1.6 8.8 2.3l.1.1a341 341 0 0 1 65.1 42 259 259 0 0 1 88.4 129c7.5 25.3 11.8 51.4 16.3 77.4l2.8 16c4.2 23.9 8.9 48.4 18.4 70.7 2.5 5.7.6 11.1-5.5 13.4A1493 1493 0 0 1 688 953c3.7 16 6 32.5 8.7 48.5 6 34.1 13.2 68 19.4 102 3.2 17.5 6.1 35 9.3 52.3l4.7 25.2 2.4 13.6.1.7c.5 2.4 1 4.9.4 7.3-.8 2.7-2.9 4.6-4.8 6.6-1.6 1.6-3.8 1.6-5.7.7l-.7-.3c-3.4-1.6-6-3.2-7.3-7-.7-2.5-1-5.2-1.5-7.7a3535.6 3535.6 0 0 1-7.8-43.6l-1.6-9.1c-5.2-31.4-10.2-62.9-12.8-94.5-1-14-2.3-28.1-3.5-42.2l-.9-10.5c-1.1-13.3-2.5-27-2.7-40.5l-4.5 1.6L657 964c-5.5 2-12.5 6-18.4 5.2-2.9-.3-5-1.2-6.8-2.9 2 28.8 4.8 57.4 8.5 86a1965.7 1965.7 0 0 0 22 135c.6 3.2 1.4 6.4 1.9 9.6.5 3.7-.5 5.9-2.5 9-1.7 2.4-5 3.7-7.8 2-3.6-2.3-5.5-4.3-6.5-8.4-1-3.7-1.6-7.6-2.3-11.4a1654.2 1654.2 0 0 1-11.4-65.2c-7.8-52-12.7-104.4-15.2-156.8a1388 1388 0 0 1-1.4-77.8c0-13.3.5-26.6 1.4-39.9 1-13.4 3-26.5 4.8-39.8 0-.5.7-.5.7 0 .8 14.9 2.1 29.8 2.8 44.7.6 14.3.9 28.5 1.4 42.8.6 18.7 1.5 37.5 2.7 56.2a9.6 9.6 0 0 1 8.5-3.1c4.7-1 9.7-3.4 14.1-5l16.8-5.5 26.4-8.7a679 679 0 0 1-18-80.8l-2-12.3c-4-24.2-8.5-48.5-15.8-72a229.8 229.8 0 0 0-34.8-68.2 370.2 370.2 0 0 0-52.7-55.3C557 627 539.7 614 523 600c.1.9.2 2 0 3-3.5 25.9-17 50-35.8 67.9-37.7 36-93.6 43.4-142 26.5-46.7-16.3-88-55-102.6-102.8-.3-.8.8-1 1.3-.5l2.4 3.3c0-.4.2-.9.7-1a129 129 0 0 0 46.6-29.2 100.2 100.2 0 0 0 21.3-33.3l.4-1c1.7-5 3.2-10.2 7-14.2Z" fill="#000"/></g><g transform="matrix(.99789 0 0 1 156 62)"><g fill-rule="evenodd" clip-rule="evenodd"><path d="M463.9 255.6A268.4 268.4 0 0 0 397.5 121c-4-4.4-7.6-11.3-13.7-12.5-6.1-12.4-17.8-21.3-27.1-31.3-20.4-20.3-39.9-43-66.2-55.9-121.8-50-239.1 92.8-264 200.3C1.8 308 28.8 427.3 136 430.8c15.2 20 36 33.9 57.6 46.3 29.3 18.8 61.3 26.4 95.2 16 33.8 8.8 68.9-19.6 89.2-44.4 16-19.3 27-42.8 41.7-62.7a37.5 37.5 0 0 0 34.7-32.3c16.2-29.8 15.4-65.4 9.6-98.1Z" fill="#edb98a"/><path d="M26.5 221.6c24.9-107.5 142.2-250.4 264-200.3 26.3 12.9 45.8 35.6 66.2 55.9 9.3 10 21 18.9 27.1 31.3 6.1 1.2 9.7 8.1 13.7 12.5A268.4 268.4 0 0 1 464 255.6c5.8 32.7 6.6 68.3-9.6 98a37.5 37.5 0 0 1-34.7 32.4c-3.2 4.3-6.2 8.8-9 13.4l-.8.2v-5c-1.5-82-6.2-131.5-14.2-148.5-8-17.2-42.8-48.6-104-94.3l-2-1.4-14.3-11.8-11.2 12.6c-42 47.4-74.9 84-98.7 109.7-25.5 27.7-47.2 69.8-64.9 126.4l-.5 1.8 31.3 41.4C28 423.8 2 306.8 26.5 221.6Z" fill="#ffcf77"/><path d="M198.4 4.3c22.2-5.1 45.4-4 67.4 1.6 43.5 11.3 79.4 40.7 109 73.4a405 405 0 0 1 70.4 108l.9 2c12.3 28 23 57.2 23.5 88.2a239 239 0 0 1-11 79.7c-7.6 22.5-21.7 45.3-46 50.7a155.4 155.4 0 0 1-75.7 82.8 129.7 129.7 0 0 1-68.5 12.5 128.4 128.4 0 0 1-65.5-28.7c-.5-.4.2-1.2.7-.9a142 142 0 0 0 75.5 17 128.2 128.2 0 0 0 104.4-60.8 185 185 0 0 0 14.5-28.4 9.1 9.1 0 0 1 3.7-10.1 133.5 133.5 0 0 0 6.5-35.2c.5-6.8.2-14 .9-20.8-.3-5.6-.6-11-1.1-16.6a199.9 199.9 0 0 0-11.2-52.2c-6.3-17-16.4-32-29-44.8-27.3-27.6-61.1-47.8-87.6-76.2l-1.4-1.5-10 10-15 15.4c-30.6 31.3-61 63-87.7 97.8a461.4 461.4 0 0 0-41 63.4 382 382 0 0 0-15.4 32.4l-1.9 4.4a105 105 0 0 0-5.7 17.1c3.8 3.9 6.6 9.5 9.8 13.8a130.4 130.4 0 0 0 25.7 26.4l.6.4c5.6 4 12.2 6.8 13 14.5.4 3.3-2.6 6-5.4 7-7.5 2.9-15.3-5.3-20.4-10-3.1-2.9-6-6-8.7-9.4-2.6.4-5.2.6-7.8.3-4-.5-8-1.2-12-2.2-32.4-8.6-56.4-35.5-69.4-65.6-17.4-40.3-17-86.8-9.8-129.4 13.2-78 56-150.7 120.7-196.8 18.1-13 38.2-24 60-29.2Zm35 10.5C191.6 12.6 153.6 34 123 60.9a296.6 296.6 0 0 0-96.8 193.7c-3.7 39-1 81 19.4 115.5a131 131 0 0 0 30 34.9 97.4 97.4 0 0 0 38 18.2 79.4 79.4 0 0 1-9.7-17.5c-.2.2-.5.2-.7 0-8.7-12-6-26.3-1.9-39.4 4.4-13.7 9.9-27.1 16.2-40.1 22.9-47.3 57-88.6 92.3-127 18-19.7 36.7-38.8 55.3-58A2691.7 2691.7 0 0 0 306.4 98c4.4-4.9 8.4-10 14-13.6 4.3-3 8.7 2.6 6.7 6.7-3.2 6.3-8.6 11.3-13.5 16.5l-.5.5a1443.4 1443.4 0 0 1-30.7 32.2c4.7-.5 9.5-.8 14.2-1.6 6.4-1 12.7-2.3 19-3.9 6.5-1.6 13-3.7 19.3-6.3 6-2.4 11.5-6.3 18-6.7 5.5-.3 7.2 6.5 4.2 10-4.2 5-11.8 7-18 8.8l-.8.2c-6.8 2-13.7 3.6-20.7 4.7-9.3 1.3-20 2-29.8.6 19.7 11.5 37.9 25.9 56 39.9l3.2 2.4a210 210 0 0 1 47.6 47 156.7 156.7 0 0 1 22.8 58.1c2 10.1 3.3 20.4 4.2 30.6 3.2 9.1 2.7 20 1.9 30l-.3 3.4v1c.1 6.3 2.7 20.3-3.3 25l-.3 1.5 2.2-1.4 1-.6.7-.7h.1a61.4 61.4 0 0 0 13.9-17.8c6-10.8 9.8-22.6 12.7-34.8a204 204 0 0 0 5.2-69c-.4-3.2-1-7.2-2.2-11.3A388.6 388.6 0 0 0 345.4 67.9c-30.4-28.3-69.8-51-112-53.1Zm-58.9 115.1c1.5-.9 3 .9 2.3 2.3-3.6 7-9.7 13-14.7 18.9l-15.6 18.6a973.5 973.5 0 0 0-30.8 38.9l-2.6 3.5A484.4 484.4 0 0 0 88.2 248c-4 6.5-7.4 13.2-10.6 20.1-3 6.6-4.4 14.5-8 20.7-.3.4-1 .4-1.1-.1-1.2-6.7 1.7-14.7 3.8-21a128 128 0 0 1 9.9-21.2c7.9-14.2 17.4-27.6 27-40.7a747.8 747.8 0 0 1 45.4-56.7l2-2.2c5.5-5.9 11-12.7 18-17Zm-25.3-20.6c2.5-1.9 4.6 1.9 3 3.9-9.4 11.8-20.2 22.5-30.5 33.6a381.7 381.7 0 0 0-73.6 109c-.2.5-1 .2-.8-.3C53.8 226.4 69 200 86.6 176l.6-.9c17.7-24 38-48.1 62-66Z" fill="#000"/></g></g><g transform="translate(315 248)"><g clip-rule="evenodd"><path fill-rule="evenodd" d="M166.7 208c11.9 0 16.9 1.9 24.6 6.4 7.7 4.5 16 10.4 18 19.2 1.8 8.1-1.8 16-9.8 19.2-4.4 1.7-55.5 5.8-63.6 6.3-8 .6-15.6 0-20.8-5.4-13.3-13.8 5.2-31.7 17-38.3a70 70 0 0 1 34.6-7.5Zm-2.8 9.2c-8.9 0-23.5 6.6-23.5 9.8 0 3.1 42.6 0 43.5-2.7 1-2.8-11-7-20-7Zm7-72.8c7.5 4.6 19 15.3 10.8 26.6-9.5 10-23.3-1.4-30-6.6-6.4-4-13.4 6.3-7.6 11 49 36.3 69-29.8 30.5-36.4-4.2-.8-5.8 4-3.8 5.4Zm-85.4-41.6c13-9.5 32.1-2.2 35.3 12.6 2.2 1.2 3.4 3 3.7 5.7v.7c.4 3.2-2.5 6.3-5.4 7-3.2 1-5.7.6-8.7-.8-2.8-1.3-3.8-5-3.3-7.8v-.3c.8-3.5-2.2-6.9-5.2-8.3-3.4-1.5-7.3-.5-10.2 1.5-3.3 2.3-6 6.3-7 10.2v.4c-.8 3.4-1.3 9.7 2 11.7.5.3.1 1.1-.5 1-7.1-1.2-11.4-5.5-11.4-13.2 0-8.1 4.3-15.7 10.7-20.4ZM204 100c12.8-4.6 28.9 7.6 24 21.8-3.3 9.3-15.9 5.5-14.7-3.8v-.2c.8-4.9-2.9-7.2-7.4-5.6-6.6 2.4-10.2 12.8-7.1 19 .4.7-.7 1.3-1.1.6l-.5-.7c-3.5-5.5-6.6-9.6-5.5-16.7A19 19 0 0 1 204 100Zm-26-33.7c-.1-.6.6-1 1.1-.9 4.6 1.2 8.7 4.5 12.9 6.6 4.5 2.4 9.2 4.3 14 5.7 4.9 1.3 9.7 2 14.7 2 5.4 0 10.7-2.1 16-2 8 .3 12.1 11.9 4.3 15.9-11.4 5.8-28.4 1.6-39.5-3.3-9-3.8-23-13-23.6-24Zm-58 2.7c4-5.4 12.5-5.7 16.2.6 3.8 6.5-.8 13-7.2 14.4-11.9 5.3-24 9.4-37 11l-1.7.3c-11.3 1.4-25.5 2-35.7-3-1-.6-.7-2.1.3-2.4 5.8-1.7 12.2-1.6 18-2.7a149 149 0 0 0 16.7-3.8c10.8-3.3 21-8 30.3-14.4Z" fill="#000"/><path d="M133.2 229.7s10.2-16.5 26.9-16.5 36 8.7 34.7 12.8c-.7 2.2-16.3 8.5-42.2 8.7-6.4 0-19.4-5-19.4-5Z" stroke="#22252B" stroke-width="1.5"/></g></g><g transform="translate(279 400)"></g><g transform="translate(179 343)"></g><g transform="translate(203 303)"></g></g></svg>