<svg xmlns="http://www.w3.org/2000/svg" viewBox="0 0 704 704" fill="none" shape-rendering="auto" width="400" height="400"><metadata xmlns:rdf="http://www.w3.org/1999/02/22-rdf-syntax-ns#" xmlns:xsi="http://www.w3.org/2001/XMLSchema-instance" xmlns:dc="http://purl.org/dc/elements/1.1/" xmlns:dcterms="http://purl.org/dc/terms/"><rdf:RDF><rdf:Description><dc:title>Open Peeps</dc:title><dc:creator>Pablo Stanley</dc:creator><dc:source xsi:type="dcterms:URI">https://www.openpeeps.com/</dc:source><dcterms:license xsi:type="dcterms:URI">https://creativecommons.org/publicdomain/zero/1.0/</dcterms:license><dc:rights>Remix of „Open Peeps” (https://www.openpeeps.com/) by „Pablo Stanley”, licensed under „CC0 1.0” (https://creativecommons.org/publicdomain/zero/1.0/)</dc:rights></rdf:Description></rdf:RDF></metadata><mask id="viewboxMask"><rect width="704" height="704" rx="0" ry="0" x="0" y="0" fill="#fff" /></mask><g mask="url(#viewboxMask)"><g fill-rule="evenodd" clip-rule="evenodd"><path d="M705.3 1074a2351.1 2351.1 0 0 1-15.6-101c-1-7.7-2.5-16.4 2.7-22 7.3-8 14-14.8 14.8-26.2.8-10.7-2.8-22.4-5-32.8a809.4 809.4 0 0 0-17.3-64.7c-6.6-21.7-13.9-43.2-21.3-64.6-6.9-20-13.5-40.3-22.5-59.5-17-36.5-46-63.5-81.6-81.6-9-4.5-27-20.5-36.3-24-8.5-3.4-8.5 6.3-16.9 2.6-6.7-2.9-13-6.7-16.7-13.2-4-7-14.3-16.9-15.9-25-3.3-17.4.3-32.2-12-45.3a90 90 0 0 0-41.1-23.8c-33.7-9.3-78.5-2.8-98.8 28.5-9.7 14.9-13 33-26.2 45.1-11.4 10.7-8.8 18-23.6 23.4-.9.3-23.6-4.5-24.4-4.2-16.2-3.5-31.7 6.2-46.5 11.8a325.4 325.4 0 0 0-63 32.3 399.2 399.2 0 0 0-102.3 98.5 482.5 482.5 0 0 0-76.4 161c-1.7 6.4-3.5 13-1.5 19.4 1.7 5.3 5.4 9.2 9.8 12.4 6 4.3 18 7 17.7 15.7-.1 6.6-2.4 13.5-3.5 20-1.3 7.7-2.3 15.5-3.4 23.2-4.8 35.4-8.6 71-10.3 106.6a920 920 0 0 0-.5 106c.1 2.3.8 4.5 2 6.2-1 .4-1.2 2.4.1 2.7l2.7.5a12 12 0 0 0 7 2.4l5.5.2c19.3 4 38.6 7.9 58.1 10.8 23.8 3.5 47.6 6.3 71.5 8.7 49.2 4.8 98 3.2 147.1.6a1877 1877 0 0 1 147.4-2c49.2 1.4 98.4 3.5 147.6 4.4 55 1 110-.5 164.8-5 7.5-.5 12.2-6.5 10.7-14-8.9-44.7-19-89.1-27-134Z" fill="#ffdbb4"/><path d="m201 597.5 1.2-.4c14.5-5.7 29.6-14.8 45.4-11.4.5-.2 10.8 1.9 17.9 3.2l-6.7 7L247 598c40.7 67.1 88.8 100.7 144.3 100.7 55.5 0 97.7-33.6 126.4-100.7l4-1c.4 0 1 .2 1.5.4 9.3 3.6 27.4 19.6 36.3 24.1 35.6 18 64.5 45 81.6 81.6 8.7 18.6 15.2 38 21.8 57.5l.7 2c7.4 21.4 14.7 43 21.3 64.6 6.3 20.4 12 41 16.6 61.8l.7 2.9c2.2 10.4 5.8 22 5 32.8a29 29 0 0 1-3 10.7l-80.4 29 38.4 261.3c-35.1 1.5-70.3 2-105.5 1.3-49.2-.9-98.4-3-147.6-4.3-47.7-1.2-95.3-.7-143 1.7l-12 .6a946.3 946.3 0 0 1-139.5-1l-3.1-.3v-38.3l16.3-212.9-83-15.6-81.3-39.5a21.7 21.7 0 0 1-5.6-8.8c-1.9-6-.5-12 1-18l.5-1.3a492.8 492.8 0 0 1 76.4-161A399.3 399.3 0 0 1 138 629.7c19.8-13 40.9-23.9 63-32.3Z" fill="#9ddadb"/><path d="M232.2 584.6c5.1-.3 10.3.6 15.4 1 .4.1.6.8 0 .9-9 1.9-18 4.5-26.9 7.1l-3.8 1.2c-10 3-19.8 6-29.6 10-19.4 7.9-37.8 18.5-54.8 30.8C67.2 682.8 20 754.3-9.9 828.3a526 526 0 0 0-24.3 77c-.4 1.6-2 5.4-1 7 .7 1.3 3.6 2.1 5 2.9l4.5 2.3 25.2 12.9 2.3 1.1c38 18.6 78.4 34.4 121 35.5l.4-3.7a342 342 0 0 1 9.9-60c.3-1 1.6-.6 1.7.3 3 23.1 2 46.4 1 69.7-1.8 41-4.3 82.2-6.5 123.3-1.2 20.6-2.6 41-3.9 61.7-1.3 20.5-1.7 41.6-4.7 62-.6 4.6-6 7-10 6.6-4.4-.5-7.9-4.5-8-9 0-11.9 1.5-24 2.4-35.8l2.5-33.8c3.1-41.1 6.8-82.2 10.2-123.3a4771 4771 0 0 1 3.8-43.7C76.4 979.8 34.2 963-6.1 943.5c-.6 13.2-2 26.5-3.4 39.6-3.8 36.8-7.1 73.6-9.6 110.5a2254.2 2254.2 0 0 0-4.2 92.7l-.2 7c0 4.4-.5 8.5-4.3 11.7-3.7 3.3-8.9 3.5-12.6 0-5-4.6-4.2-10.9-4-17.1a1675.6 1675.6 0 0 1 1.8-47.2 1321 1321 0 0 1 10.5-109.5l2-14c3.5-26 7.5-52.7 15.5-77.9-3.1-1.5-6.2-3-9.3-4.7-5.5-2.7-11.2-5.4-16.6-8.4-4.2-2.5-7.9-5.8-9-10.8-1.4-5.5.6-11.5 2-16.9v-.4a502 502 0 0 1 26.6-80 523.2 523.2 0 0 1 67.8-117 353.8 353.8 0 0 1 88.7-83.3 239 239 0 0 1 53.8-25.7 142.6 142.6 0 0 1 42.8-7.5Zm90.1-66c6-6.5 18.1.2 15.2 8.8a108.2 108.2 0 0 1-34.7 52A79.4 79.4 0 0 1 247 598l1.7 2.4a321.1 321.1 0 0 0 46.1 52.6c36 31.2 84.8 48 132 36 37.1-9.4 69.8-38.8 79.4-76.2-1.3.6-3 .9-4.8.5-7.7-1.7-15.3-9.8-20.3-15.6-5.3-6.3-9.5-13-12.6-20.7-5.6-14-7.4-32.1.3-45.7 1-1.7 3-.7 3.3 1l.3 2.5c1.5 12.7 3.3 25 9.3 36.6a76 76 0 0 0 18.2 23.1c2.6 2 5.8 3.6 8.1 6l.5.4c.6-5 4.1-7.3 7.6-7.2 3.3.2 7.3 1.6 8.8 2.3l.1.1a341 341 0 0 1 65.1 42 259 259 0 0 1 88.4 129c7.5 25.3 11.8 51.4 16.3 77.4l2.8 16c4.2 23.9 8.9 48.4 18.4 70.7 2.5 5.7.6 11.1-5.5 13.4A1493 1493 0 0 1 688 953c3.7 16 6 32.5 8.7 48.5 6 34.1 13.2 68 19.4 102 3.2 17.5 6.1 35 9.3 52.3l4.7 25.2 2.4 13.6.1.7c.5 2.4 1 4.9.4 7.3-.8 2.7-2.9 4.6-4.8 6.6-1.6 1.6-3.8 1.6-5.7.7l-.7-.3c-3.4-1.6-6-3.2-7.3-7-.7-2.5-1-5.2-1.5-7.7a3535.6 3535.6 0 0 1-7.8-43.6l-1.6-9.1c-5.2-31.4-10.2-62.9-12.8-94.5-1-14-2.3-28.1-3.5-42.2l-.9-10.5c-1.1-13.3-2.5-27-2.7-40.5l-4.5 1.6L657 964c-5.5 2-12.5 6-18.4 5.2-2.9-.3-5-1.2-6.8-2.9 2 28.8 4.8 57.4 8.5 86a1965.7 1965.7 0 0 0 22 135c.6 3.2 1.4 6.4 1.9 9.6.5 3.7-.5 5.9-2.5 9-1.7 2.4-5 3.7-7.8 2-3.6-2.3-5.5-4.3-6.5-8.4-1-3.7-1.6-7.6-2.3-11.4a1654.2 1654.2 0 0 1-11.4-65.2c-7.8-52-12.7-104.4-15.2-156.8a1388 1388 0 0 1-1.4-77.8c0-13.3.5-26.6 1.4-39.9 1-13.4 3-26.5 4.8-39.8 0-.5.7-.5.7 0 .8 14.9 2.1 29.8 2.8 44.7.6 14.3.9 28.5 1.4 42.8.6 18.7 1.5 37.5 2.7 56.2a9.6 9.6 0 0 1 8.5-3.1c4.7-1 9.7-3.4 14.1-5l16.8-5.5 26.4-8.7a679 679 0 0 1-18-80.8l-2-12.3c-4-24.2-8.5-48.5-15.8-72a229.8 229.8 0 0 0-34.8-68.2 370.2 370.2 0 0 0-52.7-55.3C557 627 539.7 614 523 600c.1.9.2 2 0 3-3.5 25.9-17 50-35.8 67.9-37.7 36-93.6 43.4-142 26.5-46.7-16.3-88-55-102.6-102.8-.3-.8.8-1 1.3-.5l2.4 3.3c0-.4.2-.9.7-1a129 129 0 0 0 46.6-29.2 100.2 100.2 0 0 0 21.3-33.3l.4-1c1.7-5 3.2-10.2 7-14.2Z" fill="#000"/></g><g transform="matrix(.99789 0 0 1 156 62)"><g fill-rule="evenodd" clip-rule="evenodd"><path d="m154 59.3 8.6 10.3c-4.7 3.4-9.2 6.8-13.5 10.2a118 118 0 0 1 65-20.5c45.3 0 137.4 39 158.2 67 10.3 14 29.5 56.8 39.5 103.3 8 37.4 19.9 143 8 182.7-15.2 50.7-65.3 97.7-117 97.7s-131.9-37.3-189-119c-2.6-3.8-32.5-8.1-54-22.2l5.7 61.9 4.3 36-1 2.5c-15.3 41.4-27.4 63-36.4 64.8-9.1 1.9-27.7-13.1-55.8-44.9l-3.6-15c-9.1-38.5-13.7-59.1-13.7-62v-.5c.2-6.5 2.4-43.3 2.4-53.2V210C-8 109.5 20.7 59.3 48.2 59.3H154Z" fill="#ffdbb4"/><path d="M82.4 25.1a31.3 31.3 0 0 1 27.6 2.4 48 48 0 0 1 41.7 23.1l.5.6 1.8 2.2c1.8 2 3.6 4.2 5 6.6-7 .1-13 3-17 8.8-3 4.2 3.7 8.2 6.7 4.2l.1-.1c2.5-3.5 6.3-4.9 10.4-5 1.2 0 2.1-.4 2.8-1.1l.6 2.8c21-8.1 43.6-10.3 66-8.4-1 1.6-1.8 3.3-2.4 5.1-.7 2 .8 4.4 2.8 5 2.1.5 4-.7 4.9-2.6v-.2c.9-2.5 2.3-4.6 4.2-6.2 10.6 1.4 21 3.7 31.3 6.6 12.4 3.6 24.6 8 36.5 12.9-2 .7-3.8 2-5 4.3-2.4 4.5 4.3 8.5 6.8 4.2l.1-.1.7-1 .4-.1.6-.2h.3l.9-.2h2.3c1.8 0 3-1 3.5-2.3 6 2.6 11.7 5.4 17.5 8.3l1.3.8c17.7 9.2 34.4 21.3 44 39 .7 1.3.9 2.6.7 3.8l6 7.6c5.9 8 10.2 17 14.2 26a282 282 0 0 1 18 56c4.1 18.5 7.5 37.3 10.6 56.2 3.4 20.9 6.3 42 7 63.2 1 37.8-6.4 75.8-27.6 107.6-19 28.4-47.5 51-81.3 58.2a114 114 0 0 1-98-22.7c-4.3-3.7-3.7-11.2 0-15 4.3-4.2 10.6-3.6 15 0 25.5 21.6 62.7 25 93.4 14 28.5-10.2 50.8-33.7 64.4-60 16.7-32.2 19.5-69.2 17-104.7-1.4-19.6-4.4-39-7.4-58.3l-1.8-11.6c-2-12.7-4-25.3-6.7-37.8l-.7-2.9a256 256 0 0 0-13.1-44.6 240.2 240.2 0 0 0-13.1-25.8c-1 .3-2.3.4-3.6 0a145.6 145.6 0 0 0-49.2-6.7c-9-.5-18 .3-26.6 3a187 187 0 0 0-2.5-2 6.6 6.6 0 0 1-5.4-4.3c-1-.9-2.2-1.7-3.3-2.5-2.7.7-5-1.6-5.7-4l-1.8-1.2-1.4.2c-2 .2-4-.1-5.7-1a10.5 10.5 0 0 1-4.6-5.4c-3.3.2-6.8-.9-9.8-2.9a29.7 29.7 0 0 1-6.1-6 209.5 209.5 0 0 0-72-17.6 99 99 0 0 0-9.6 2.5c5.5-.7 11-.8 16.7 0 26.9 4 47.8 24 65.8 43 4.3-.8 8.6 4.7 4.7 8.4l-31 28.6c.8 3.2-2.9 6.4-6 5.6l-16.3-3.8a17.2 17.2 0 0 1-17.8-1.7l-1.2-.8-1.2.9a8.7 8.7 0 0 1-6.2 1.2c-2.2-.3-4.2-1.5-5.9-2.8-1-1-3.6-4.6-5-4.9h-.1c1 0-2 2.9-2.9 3.4a9 9 0 0 1-6.3 1.8c-4.1-.4-7.6-4.1-9.6-7.6l-.2-.3v-.1.2h-.1c-.3.9-1.3 1.8-2 2.4a7.6 7.6 0 0 1-6.4 1.9c-2-.4-3.8-1.6-5.1-3.1l-.3-.3c-.4-.4-3-4-2.6-5h-.1c-1.7.4-3 0-4-.8-5.6-1.3-11.2-2.7-16.5-4.5l-1.3 3.5c3 1.8 5.7 4.4 8.1 6.2l14.2 10.5 18.7 13.8 2-.6c2.8-.7 5.2.8 6.2 3.3v.2l1.5 3a9.8 9.8 0 0 1 9.9 6.8l3.5.1c3.2.4 5.4 2.8 4.8 6.1V211c1.8.8 3.2 2.4 3.5 4.7.5.8.9 1.6 1.2 2.5 1.3 4.8-1.3 10.7-2.7 15.3l-.2.3-2.7 9-2.4 7.5c-6.6 20.7-13 42.6-7.7 64.3 1.2 4.6-4.7 6.7-7.3 3-6.1-8.6-12.8-16.8-19.8-24.7h-.4c-4.9-1-6.8-4.5-9-8-1.4.3-2.8.4-4.2.2-2-.4-3.8-1.6-5.2-3-1.2-1.2-2.3-4.4-3.7-5.1-1.8-1-5.3.4-7.4 0-1.7-.2-3.3-.8-5-1.5a27 27 0 0 0-5.1 13.4 11 11 0 0 1-1.6 4.8c3-.1 6 0 9 .6 10.9 2 18.7 8.8 23 18.9.3.4-.3.8-.6.3-6.5-10-20.7-10.5-31-7-11 3.8-17.1 13.4-19.3 24.4-2.4 12.1.7 25.1 7.2 35.4 3 4.8 7.2 9.1 12.8 10.9 6.5 2 12.6-1.7 19.3.3 4.6 1.3 6.7 5.7 5.8 10.1-.3 1.8-1 3.3-1.7 4.6 2.4 4.8 4.6 9.8 7.5 14.3 4.4 7 9.7 12.8 15.5 18.7 6 6 12 12 18.5 17.5 6.1 5.4 13.2 9.2 19.6 14.1 4.5 3.5 6.8 8.3 4.5 13.9-1.8 4.5-8 8.4-13 6.4-9.6-4-18-10.7-25.7-17.7a89.8 89.8 0 0 1-18-22.5c-4.4-7.8-7.6-16.8-10.3-25.4l-.4-1c-1.3-4.2-2.6-8.8-3.5-13.5a30.8 30.8 0 0 1-18 2.6A40.2 40.2 0 0 1 74.2 387c-2.9-3-5.5-6.6-7.7-10.5l.4 6.7c5.3 5.7 7.3 14 5.5 21.5a16 16 0 0 1 3.3 17c4.8 4.7 4.6 12.3 2.5 19.1a19.9 19.9 0 0 1 1.8 23.3l-.1.5c4.4 7.5 3.4 17.1-2.1 23.7 3.8 7.4 3.2 17.3-6.4 20.2-3.4 1-6.8.2-9.3-1.8 2.3 11.5 3.3 23 .2 34.6a11 11 0 0 1-10.3 7.9c-4 0-6.8-2-8.8-5 .3 5.9 0 11.7-1.3 17.5-.8 3.5-4 6.3-7.5 7.1a4.6 4.6 0 0 1 .5 5.6c-5 9-17.4 5.3-18.2-3.3-3.5-2.6-5.1-6.9-5.8-11.5-1-6.7-1.3-13.3-2.4-20l-.4.4-.3.2v.5a10 10 0 0 1-5 7c.6 5.7-.4 11.5-4 15.8-2.4 3-6.5 4-10 3.4h-.7c-8-1-12.7-8.6-10.6-15.6-3.2-4-4.5-9-3.6-13.9-6.2-4.1-6-13.2-4-20.5-6.5-5.1-9-14.7-5.6-22.4a24.5 24.5 0 0 1-2.7-25.8 13.9 13.9 0 0 1 0-21c-3.5-6.9-5.5-15-2.1-21.2a13.8 13.8 0 0 1-3.5-10.1c.4-5.4 4-9.1 8.4-11.6l.3-1.7c1 .1 2.2-.2 3.1-1 1-1 2-1.8 3-2.4 1.2 0 2.2-.5 2.9-1.3 2-.7 4-1 6.3-1 5 0 5.1-7.5.5-8a4 4 0 0 0-2.8-1.1h-.9c-2 0-4 .1-5.8 1a6.6 6.6 0 0 0-2.8 2.1c-.2 1.5-1 3-2.6 4a6.3 6.3 0 0 1-6.7.4c-3-1.8-3-4.4-2.7-7.4.8-6.4-3-12.4-2-19 .4-2.9 1.3-5.4 2.9-7.4-3.3-5-4-11.4-1.4-16.9a19.4 19.4 0 0 1-2.8-21.4l.1-.5c.4-1.2 1-2.3 1.5-3.3-3-5.1-3-11.5.1-16.6a16.4 16.4 0 0 1-.6-19.7v-1.4a18.3 18.3 0 0 1 1-15c-.8-1.9-1.5-4-1.9-6.2a36.8 36.8 0 0 1 2-19.7c0-3.9.1-7.7.3-11.6-.7-3.2-.9-6.8-.9-10.1v-2.2c0-5.4-.4-13.4 3-18-2.2-5.1-1.2-11.4 2.5-15.4a15.2 15.2 0 0 1 .9-17.2c-.2-4.6.7-9.2 3.1-13.8 1.6-3 4-5.5 6.8-7.5l-.1-1.8c0-2.6.6-5.3 1.6-7.8-1.8-3-2.6-6.4-1.5-10 1.1-4.2 4.2-7.8 8-9.8.3-4 .9-7.9 1.8-11.7-2.4-5.2-.5-12.1 4.8-15.2-.7-4.1 0-8.5 3-11.7 1.1-1.2 2.5-2.2 4-2.8A13.8 13.8 0 0 1 4.8 58a15.4 15.4 0 0 1 15.6-12.3 11.2 11.2 0 0 1 9.2-8.1 52 52 0 0 1 22.5-12.2 37 37 0 0 1 22.2 0l.5.3h.5c2.4-.4 4.7-.5 7-.6ZM23.8 519c-2-.7-4.4.7-5 2.8a4 4 0 0 0 2.8 4.9c2.6.8 5.3 1 8 1a4 4 0 0 0 4-4 4 4 0 0 0-4-4 18 18 0 0 1-5.8-.7ZM5.4 476.4c-3 0-5.7.7-8 2.9-1.5 1.4-1.5 4.2 0 5.7a4 4 0 0 0 5.5.1l.3-.3h.1l.4-.3-.3.2.6-.2h.3l1.1-.1c2.1 0 4.1-1.8 4-4a4 4 0 0 0-4-4ZM63.6 451c4.3-2.6.5-9.4-3.9-7l-.1.1c-2.3 1.4-5 1.2-7.5 1.2-5.2 0-5.2 8 0 8h.8c3.7 0 7.5-.3 10.7-2.3Zm-34-29.2c-3.3-.6-7-1.1-10.4-.8h-1.6a4 4 0 0 0-2.6 1c-1.1.5-2.2 1.2-3.2 2-3.9 3.4 1.8 9 5.7 5.7l.7-.5.2-.1h4.3c.4 0 .8 0 1.1-.2l3.6.6c5 1 7.2-6.7 2.1-7.7ZM25.8 345c-6.3-2.9-13.2-2.8-19 1.2-4.2 2.9-.3 9.7 3.9 7l.1-.1 1.6-1c3 1 6 1 8.7 0l.4-.2h.2c4.7 2.2 8.7-4.7 4-6.9Zm68.3-12.5c-6.4-.7-6.4-10.7 0-10a53.1 53.1 0 0 1 34.6 17.8c4.2 4.8-2.7 11.8-7 7.2v-.1a43 43 0 0 0-27.6-14.9Zm-71-51.4c-1.4-.1-2.8-.2-4.2-.1-3.3.1-7.4 2.3-6 6.3 1.3 3.3 5 3.4 7 1.7l2.3.1c2.1.2 4.2.6 6.3 1 5 1 7.1-6.7 2-7.7l-2.2-.4a107.6 107.6 0 0 0-3.7-.9h-1.5Zm-39.8-62h-.4c-6.8-1-17.6-.2-18.4 8.4-.5 4.8 6.4 5 7.7 1 5-.9 10-1 15-.5 2-2 2-5.6-1.2-6.5-.5-1.2-1.4-2.3-2.7-2.4ZM138 204.5c-1.6-1.4-4.2-1.6-5.7 0-.9 1-1.6 2-2.2 3.2l-.4.7-.2.4-.4.7h-.1l-.2.2c-1.4 1.5-1.6 4.2 0 5.7 1.6 1.4 4.2 1.6 5.7 0 .9-1 1.6-2 2.2-3.1l.4-.8.2-.4.4-.7.2-.1v-.1c1.5-1.5 1.7-4.2 0-5.7Zm-82-10.4c-5.7-4-12.4-4.2-17.6.7-3.7 3.4 1.8 9 5.5 5.7h.2l.4-.4c.7.5 1.5 1 2.5 1h1.6c.3.2.7.4.1 0 .2 0 .3.2.4.3l.3.2c1.5 1.4 4 1.6 5.6 0 2.6-.9 4-5.3 1-7.5Zm55-13 .1-.1c5-1.4 2.9-9.1-2-7.7-5.4 1.5-7.9 6.4-9 11.4-.4 2.1.7 4.3 2.9 5 2 .5 4.4-.7 4.9-2.9.3-1.5.7-2.7 1.2-4l.4-.6c.1-.3.2-.3.7-.8l.8-.4Zm-83.7-40.4-.7-.1c-4.9-1.1-11.3-1.7-14.2 3.1-2.6 4.4 4 8.3 6.8 4.2h1.5c1.5 0 3 .2 4.5.5 5 1.2 7.1-6.5 2.1-7.7ZM200.1 110c3.6-3.7-2-9.3-5.7-5.7a38.4 38.4 0 0 0-7.5 9.5c-1 1.9-.5 4.3 1.4 5.4 1.8 1 4.5.5 5.5-1.4 1.6-3.2 3.6-5.2 6.3-7.8Zm-46-9.6c-3.6 2.1-6 5.7-7.4 9.7-.7 2 .8 4.4 2.8 5 2.1.5 4-.7 4.9-2.7v-.2c.4-1 1-2.3 1.8-3.3.6-.8 1.6-1.7 2.4-2 1.8-.6 3-2.2 2.9-4.1-3 1-5.8-.2-7.4-2.4ZM46.3 83a11.4 11.4 0 0 0-13-1.8c-2 1-2.4 3.8-1.4 5.5 1.2 2 3.5 2.4 5.5 1.4-.5.3.4 0 .8-.1h1.2-.2l.6.1h.2l.6.5c3.8 3.6 9.5-2 5.7-5.6Z" fill="#000"/></g></g><g transform="translate(315 248)"><g fill-rule="evenodd" clip-rule="evenodd"><path d="M95.4 211.2c16-12.4 100.6-16 109-8 8.4 8 28.2 31.2-9.6 46-37.8 14.7-86 13.9-99.4 0-13.5-13.9-16-25.6 0-38Z" fill="#fff"/><path d="M168 192.8c8.4-.3 17-1 25.4.3 14 2 28.3 12 28.3 27.6-.1 26-29.4 35.9-50.4 39.3l-2.3.3c-25.1 4-55.2 7.7-77.7-6.6-10.7-6.7-17.4-18-14.3-30.8a36.2 36.2 0 0 1 24.7-24.7c13.5-4.4 27.4-2.1 41-.3l3 .4c3.2-1 6.4-2.4 9.6-3.4a50 50 0 0 1 12.6-2Zm-3.2 33.4-13.1 1.7-14.9 1.9c.7 6.7.8 13.5.6 20.4a185 185 0 0 0 26.5-2.8c.6-7 1-14.1 1-21.2Zm-39 5c-12 1.3-24 2.5-36 3.5 2.8 5.2 9.7 8.5 15 10.4 6.1 2.1 12.4 3.4 18.8 4 1-5.8 1.8-11.9 2.2-18Zm87-10c-9 1.5-18.4 2.1-27.4 3.3l-10.6 1.3c1.1 6.4 2 12.9 2.5 19.4l1.6-.3a70.3 70.3 0 0 0 21.4-7.3l.6-.3c5.2-3.2 12.1-9.4 12-16.1Zm-86-10c-5.9.5-12.1.6-17.8 1.9-8.4 1.8-18.4 6.4-20 15.8a10 10 0 0 0 .2 4.3c12.3-2.3 24.7-4.5 37-6.5.4-5.2.5-10.4.6-15.5Zm32.1-3-8 .7c-6 .5-12 .7-18 1.1 1.4 4.7 2.4 9.4 3.1 14.2l14.8-2.2 14-2v-3.6l-.1-7.2h-.6l-5.2-1Zm50 5.6c-5.7-5-16.2-4.7-22.9-4.5-5 .1-10 .7-15.2.7 1 3 1.9 6 2.6 9.2l10.8-1.6c8.2-1.2 16.4-2.8 24.6-3.8Zm-38-69.4c7.5 4.6 19 15.3 10.8 26.6-9.5 10-23.3-1.4-30-6.6-6.4-4-13.4 6.3-7.6 11 49 36.3 69-29.8 30.5-36.4-4.2-.8-5.8 4-3.8 5.4Zm73.9-25.6c-2.6 16.9-29.1 40.4-32.7 40.4-3.6 0-34.5-30-34.5-43.3 0-13.3 13.3-31.2 34.5-8.7 12-15 35.3-5.3 32.7 11.6Zm-118-15c6.3 9 4 20.4-2.4 28.7-5.6 7.4-24.6 23.9-27.5 24.3-3.7.5-20.4-18.4-24.2-21.6-4-3.1-14.6-13.3-12-22.8 2.4-9 15.5-24.4 34.6-8.6 6-15.1 26-8.3 31.6 0Zm-62-29.4c9.7-11 30.5-22.6 42-7.7 2.8 3.8-.3 10-4.6 11-5.2 1.2-10.6.4-15.8 2a49.5 49.5 0 0 0-13.3 6.8c-4.7 3.2-9 6.7-12.9 10.7-2.3 2.4-5.3 8-8.9 8.1-3.6.1 1.2-11 1.6-12 2.9-7 6.8-13.3 11.8-18.9Zm118.5-26.8c5.7-2.7 11.2-1.5 16.9 0l2.4.7a58 58 0 0 1 17.7 7.4l.4.3c6.6 4.7 16.5 14.7 11.8 23.5-.3.6-1 .6-1.6.4-6.1-2.7-10.7-8-17.2-10.3l-1.2-.4a64.3 64.3 0 0 0-21-4.2c-4.8 1.5-11.2.3-12.5-5.6v-.3l-.1-.6c-.8-4 .3-9 4.4-11Z" fill="#000"/></g></g><g transform="translate(279 400)"></g><g transform="translate(179 343)"></g><g transform="translate(203 303)"></g></g></svg>