<svg xmlns="http://www.w3.org/2000/svg" viewBox="0 0 704 704" fill="none" shape-rendering="auto" width="400" height="400"><metadata xmlns:rdf="http://www.w3.org/1999/02/22-rdf-syntax-ns#" xmlns:xsi="http://www.w3.org/2001/XMLSchema-instance" xmlns:dc="http://purl.org/dc/elements/1.1/" xmlns:dcterms="http://purl.org/dc/terms/"><rdf:RDF><rdf:Description><dc:title>Open Peeps</dc:title><dc:creator>Pablo Stanley</dc:creator><dc:source xsi:type="dcterms:URI">https://www.openpeeps.com/</dc:source><dcterms:license xsi:type="dcterms:URI">https://creativecommons.org/publicdomain/zero/1.0/</dcterms:license><dc:rights>Remix of „Open Peeps” (https://www.openpeeps.com/) by „Pablo Stanley”, licensed under „CC0 1.0” (https://creativecommons.org/publicdomain/zero/1.0/)</dc:rights></rdf:Description></rdf:RDF></metadata><mask id="viewboxMask"><rect width="704" height="704" rx="0" ry="0" x="0" y="0" fill="#fff" /></mask><g mask="url(#viewboxMask)"><g fill-rule="evenodd" clip-rule="evenodd"><path d="M705.3 1074a2351.1 2351.1 0 0 1-15.6-101c-1-7.7-2.5-16.4 2.7-22 7.3-8 14-14.8 14.8-26.2.8-10.7-2.8-22.4-5-32.8a809.4 809.4 0 0 0-17.3-64.7c-6.6-21.7-13.9-43.2-21.3-64.6-6.9-20-13.5-40.3-22.5-59.5-17-36.5-46-63.5-81.6-81.6-9-4.5-27-20.5-36.3-24-8.5-3.4-8.5 6.3-16.9 2.6-6.7-2.9-13-6.7-16.7-13.2-4-7-14.3-16.9-15.9-25-3.3-17.4.3-32.2-12-45.3a90 90 0 0 0-41.1-23.8c-33.7-9.3-78.5-2.8-98.8 28.5-9.7 14.9-13 33-26.2 45.1-11.4 10.7-8.8 18-23.6 23.4-.9.3-23.6-4.5-24.4-4.2-16.2-3.5-31.7 6.2-46.5 11.8a325.4 325.4 0 0 0-63 32.3 399.2 399.2 0 0 0-102.3 98.5 482.5 482.5 0 0 0-76.4 161c-1.7 6.4-3.5 13-1.5 19.4 1.7 5.3 5.4 9.2 9.8 12.4 6 4.3 18 7 17.7 15.7-.1 6.6-2.4 13.5-3.5 20-1.3 7.7-2.3 15.5-3.4 23.2-4.8 35.4-8.6 71-10.3 106.6a920 920 0 0 0-.5 106c.1 2.3.8 4.5 2 6.2-1 .4-1.2 2.4.1 2.7l2.7.5a12 12 0 0 0 7 2.4l5.5.2c19.3 4 38.6 7.9 58.1 10.8 23.8 3.5 47.6 6.3 71.5 8.7 49.2 4.8 98 3.2 147.1.6a1877 1877 0 0 1 147.4-2c49.2 1.4 98.4 3.5 147.6 4.4 55 1 110-.5 164.8-5 7.5-.5 12.2-6.5 10.7-14-8.9-44.7-19-89.1-27-134Z" fill="#d08b5b"/><path d="m201 597.5 1.2-.4c14.5-5.7 29.6-14.8 45.4-11.4.5-.2 10.8 1.9 17.9 3.2l-6.7 7L247 598c40.7 67.1 88.8 100.7 144.3 100.7 55.5 0 97.7-33.6 126.4-100.7l4-1c.4 0 1 .2 1.5.4 9.3 3.6 27.4 19.6 36.3 24.1 35.6 18 64.5 45 81.6 81.6 8.7 18.6 15.2 38 21.8 57.5l.7 2c7.4 21.4 14.7 43 21.3 64.6 6.3 20.4 12 41 16.6 61.8l.7 2.9c2.2 10.4 5.8 22 5 32.8a29 29 0 0 1-3 10.7l-80.4 29 38.4 261.3c-35.1 1.5-70.3 2-105.5 1.3-49.2-.9-98.4-3-147.6-4.3-47.7-1.2-95.3-.7-143 1.7l-12 .6a946.3 946.3 0 0 1-139.5-1l-3.1-.3v-38.3l16.3-212.9-83-15.6-81.3-39.5a21.7 21.7 0 0 1-5.6-8.8c-1.9-6-.5-12 1-18l.5-1.3a492.8 492.8 0 0 1 76.4-161A399.3 399.3 0 0 1 138 629.7c19.8-13 40.9-23.9 63-32.3Z" fill="#e78276"/><path d="M232.2 584.6c5.1-.3 10.3.6 15.4 1 .4.1.6.8 0 .9-9 1.9-18 4.5-26.9 7.1l-3.8 1.2c-10 3-19.8 6-29.6 10-19.4 7.9-37.8 18.5-54.8 30.8C67.2 682.8 20 754.3-9.9 828.3a526 526 0 0 0-24.3 77c-.4 1.6-2 5.4-1 7 .7 1.3 3.6 2.1 5 2.9l4.5 2.3 25.2 12.9 2.3 1.1c38 18.6 78.4 34.4 121 35.5l.4-3.7a342 342 0 0 1 9.9-60c.3-1 1.6-.6 1.7.3 3 23.1 2 46.4 1 69.7-1.8 41-4.3 82.2-6.5 123.3-1.2 20.6-2.6 41-3.9 61.7-1.3 20.5-1.7 41.6-4.7 62-.6 4.6-6 7-10 6.6-4.4-.5-7.9-4.5-8-9 0-11.9 1.5-24 2.4-35.8l2.5-33.8c3.1-41.1 6.8-82.2 10.2-123.3a4771 4771 0 0 1 3.8-43.7C76.4 979.8 34.2 963-6.1 943.5c-.6 13.2-2 26.5-3.4 39.6-3.8 36.8-7.1 73.6-9.6 110.5a2254.2 2254.2 0 0 0-4.2 92.7l-.2 7c0 4.4-.5 8.5-4.3 11.7-3.7 3.3-8.9 3.5-12.6 0-5-4.6-4.2-10.9-4-17.1a1675.6 1675.6 0 0 1 1.8-47.2 1321 1321 0 0 1 10.5-109.5l2-14c3.5-26 7.5-52.7 15.5-77.9-3.1-1.5-6.2-3-9.3-4.7-5.5-2.7-11.2-5.4-16.6-8.4-4.2-2.5-7.9-5.8-9-10.8-1.4-5.5.6-11.5 2-16.9v-.4a502 502 0 0 1 26.6-80 523.2 523.2 0 0 1 67.8-117 353.8 353.8 0 0 1 88.7-83.3 239 239 0 0 1 53.8-25.7 142.6 142.6 0 0 1 42.8-7.5Zm90.1-66c6-6.5 18.1.2 15.2 8.8a108.2 108.2 0 0 1-34.7 52A79.4 79.4 0 0 1 247 598l1.7 2.4a321.1 321.1 0 0 0 46.1 52.6c36 31.2 84.8 48 132 36 37.1-9.4 69.8-38.8 79.4-76.2-1.3.6-3 .9-4.8.5-7.7-1.7-15.3-9.8-20.3-15.6-5.3-6.3-9.5-13-12.6-20.7-5.6-14-7.4-32.1.3-45.7 1-1.7 3-.7 3.3 1l.3 2.5c1.5 12.7 3.3 25 9.3 36.6a76 76 0 0 0 18.2 23.1c2.6 2 5.8 3.6 8.1 6l.5.4c.6-5 4.1-7.3 7.6-7.2 3.3.2 7.3 1.6 8.8 2.3l.1.1a341 341 0 0 1 65.1 42 259 259 0 0 1 88.4 129c7.5 25.3 11.8 51.4 16.3 77.4l2.8 16c4.2 23.9 8.9 48.4 18.4 70.7 2.5 5.7.6 11.1-5.5 13.4A1493 1493 0 0 1 688 953c3.7 16 6 32.5 8.7 48.5 6 34.1 13.2 68 19.4 102 3.2 17.5 6.1 35 9.3 52.3l4.7 25.2 2.4 13.6.1.7c.5 2.4 1 4.9.4 7.3-.8 2.7-2.9 4.6-4.8 6.6-1.6 1.6-3.8 1.6-5.7.7l-.7-.3c-3.4-1.6-6-3.2-7.3-7-.7-2.5-1-5.2-1.5-7.7a3535.6 3535.6 0 0 1-7.8-43.6l-1.6-9.1c-5.2-31.4-10.2-62.9-12.8-94.5-1-14-2.3-28.1-3.5-42.2l-.9-10.5c-1.1-13.3-2.5-27-2.7-40.5l-4.5 1.6L657 964c-5.5 2-12.5 6-18.4 5.2-2.9-.3-5-1.2-6.8-2.9 2 28.8 4.8 57.4 8.5 86a1965.7 1965.7 0 0 0 22 135c.6 3.2 1.4 6.4 1.9 9.6.5 3.7-.5 5.9-2.5 9-1.7 2.4-5 3.7-7.8 2-3.6-2.3-5.5-4.3-6.5-8.4-1-3.7-1.6-7.6-2.3-11.4a1654.2 1654.2 0 0 1-11.4-65.2c-7.8-52-12.7-104.4-15.2-156.8a1388 1388 0 0 1-1.4-77.8c0-13.3.5-26.6 1.4-39.9 1-13.4 3-26.5 4.8-39.8 0-.5.7-.5.7 0 .8 14.9 2.1 29.8 2.8 44.7.6 14.3.9 28.5 1.4 42.8.6 18.7 1.5 37.5 2.7 56.2a9.6 9.6 0 0 1 8.5-3.1c4.7-1 9.7-3.4 14.1-5l16.8-5.5 26.4-8.7a679 679 0 0 1-18-80.8l-2-12.3c-4-24.2-8.5-48.5-15.8-72a229.8 229.8 0 0 0-34.8-68.2 370.2 370.2 0 0 0-52.7-55.3C557 627 539.7 614 523 600c.1.9.2 2 0 3-3.5 25.9-17 50-35.8 67.9-37.7 36-93.6 43.4-142 26.5-46.7-16.3-88-55-102.6-102.8-.3-.8.8-1 1.3-.5l2.4 3.3c0-.4.2-.9.7-1a129 129 0 0 0 46.6-29.2 100.2 100.2 0 0 0 21.3-33.3l.4-1c1.7-5 3.2-10.2 7-14.2Z" fill="#000"/></g><g transform="matrix(.99789 0 0 1 156 62)"><g fill-rule="evenodd" clip-rule="evenodd"><path d="M236.5 86.8c48.7 0 142.9 56.6 142.9 56.6s44.2 185.2 35.3 238c-9 53-55.3 117.8-132.1 117.8s-97.7-27.1-116.2-39.4c-18.4-12.3-55.7-68.4-55.7-68.4s-25.2 7.9-32.7 3.3c-10.5-6.4-9.2-23.4-12.5-39.9-2.5-12-10.8-24-10.8-30.7 0-24.5 17.4-22.8 26.1-28.6-19.2-19-14.1-84.5 10-119 24.2-34.4 96.9-89.7 145.7-89.7Z" fill="#d08b5b"/><path d="M324.2 45c4.3-.6 7.7 5.4 3.2 7.6-19.3 9.5-39.4 16.6-59 25.2 10 1.2 20.2 3.1 30 6 11.4-4.6 23-8.4 35-11l3.8-.9c12.2-2.7 26-5.2 37.8-1 4 1.3 3.8 6.5 0 8-6.9 2.6-14.5 3.3-21.8 4.2a236.8 236.8 0 0 0-37.5 7.3 175.6 175.6 0 0 1 53.6 41.1 159.6 159.6 0 0 1 28.4 48.1 71 71 0 0 1 3.5 14.4c.6 4 .2 7.8.3 11.6.2 0 .4.3.4.5 2.4 9.3 2.7 19.4 3.4 29 .8 9.8 1.6 19.7 2.2 29.6.7 9.9.6 20.2 2.4 29.9 1.7 8.8 6.7 16.6 9.5 25.2 16.8 51.2.4 112.6-40.5 148a142 142 0 0 1-73.4 33 147.5 147.5 0 0 1-61.7-4.7l-2.4-.7a53 53 0 0 1-7.8-3c-3.5-1.7-5-4.7-6.3-8.2-.7-2.2.5-5.6 2.6-6.5l.7-.3c3.8-1.6 6.8-2.2 10.8-.7a124 124 0 0 0 72 4.8c24.4-5.4 46.9-17.8 63.8-36.3a127.7 127.7 0 0 0 27.5-120.6c-1-3.4-2.3-6.7-3.4-10.1-1-3-1.3-6.4-1.7-9.6l-.1-.7c-1.2-8.1-.8-16.4-.8-24.6v-24.8l.1-9.3.1-9.4c-1 .2-2.5-.6-2.6-2-.4-5-1.5-9.8-2.2-14.8l-.1-1.3a46 46 0 0 0-3.3-13.4c-3.9-8.6-6.6-17.7-10.3-26.3a140.8 140.8 0 0 0-31.7-46.3 140.3 140.3 0 0 0-57.9-33l-2 .9a238.7 238.7 0 0 0-57.2 35.6l-8.4 7.4a199.4 199.4 0 0 0-5.9 5.4c-1.7 1.2-1.8 3 0 5.2.5-.2 1 .8.4 1-3.4 1.8-6-2-5.3-5 .6-2.6 2.9-4.8 4.5-6.8l.2-.2c2.5-3.1 5-6.2 7.8-9.1 14.4-15.4 31.4-28 49.7-38.2a154.7 154.7 0 0 0-36.8-2.2 416.6 416.6 0 0 0-45.7 28.8c-1.4 1-3.6 2.3-4.7 3.6-.9 1-3.2 5.6-.2 5.5.3 0 .4.5 0 .5-2.6.7-3-2.1-2.5-4.2 1.1-5.3 8.2-9.5 12.1-12.8l.3-.2c8-6.8 16.2-13.3 24.7-19.5a168 168 0 0 0-73.5 30.4 200.2 200.2 0 0 0-63.3 81c-6.7 15-12.3 31-14.2 47.4-1.8 14.6 0 30.7 11.5 41h1.9l1-.1c8.1-.5 25.1 0 24.6 11.3 0 .5-.8.8-1 .3-2.7-5.8-10.5-4.8-16-3.9l-3.2.5a54 54 0 0 0-18.8 5.9 22.4 22.4 0 0 0-11.4 14.9c-1 6.4 3.2 11.2 6.9 16a31.7 31.7 0 0 1 7.9 17.7c.4 7-3 14-2 20.9 2.2 15.4 24.6 10.4 34.2 8 2.9-.6 6.9.5 8.2 3.4a128.8 128.8 0 0 0 43.5 52.6c6.4 4.4 12.6 8 17 14.6 1.7 2.6-.6 5.4-3.3 5.6-8.6.8-15.6-3.5-22.4-8.3a137.4 137.4 0 0 1-45.1-52.5l-1 .1c-14.8 2.8-31.2 2.8-40.8-10.8-4.2-6-4.7-13-3.6-20.1 1-7 3.6-13.4-.3-19.9C55 345 50 340.1 48 333.4c-2-6.5-.9-13.4 2-19.4 5.6-11.5 17.1-17.2 29.2-19-14.5-8.8-19.4-26.6-19.4-43 0-20.4 7.2-41 15.4-59.5a203.3 203.3 0 0 1 73.4-86.4A182 182 0 0 1 249 76.6c9-5.5 18.4-10.5 28-15.2l2-1c14.5-7 29-12.8 45-15.3ZM75.8 328.3c1.8-4.2 9.5-4.2 13.2-4h.7c11 .5 29.5 5 31.8 17.5.4 2-1 4.8-3.5 4.6-3.6-.4-6.4-1-9.4-3.2L107 342c-2.6-1.8-5-3.5-7.9-5-3.4-1.8-6.9-3.1-10.6-4.2l-4.6-1.2-3-.8c-1.2-.7-2-.2-2.3 1.4.4.2.4 1-.2 1-2.2-.3-3.5-2.9-2.7-5Zm35.4-18v4.6-4.6Z" fill="#000"/></g></g><g transform="translate(315 248)"><path fill-rule="evenodd" clip-rule="evenodd" d="m182.2 226 .7-.2c5.6-1.3 10.9-3 16 .4 5 3.2 5.6 9.2 1.8 13.6-4 4.6-9.2 4.3-14.7 4.4h-.3a135.2 135.2 0 0 1-26.5-2.2l-2.5-.5c-2.5-.5-5-1.2-6.3-3.6-2.3-4.3 14.6-7.7 16.7-8.2 5-1.5 10-2.6 15.1-3.7Zm9.4-51.6a23.2 23.2 0 0 1-10.2 5.9c-10 3-23 1.4-31.1-1.7-1.7-.6-3.3-1.9-4.3-3.5a5.8 5.8 0 0 1-.4-5c.1-.5.4-1 .6-1.4a6 6 0 0 1 3.3-3 7 7 0 0 1 4.5-.3l.6.2c5.2 1.6 13.7 4.4 20.8 3.8 4.3-.3 8-1.8 10-5.7 1-2 .7-4-.2-5.9-1.4-2.8-4.1-5.2-6.4-6.9-3.3-2.4-6.7-3.3-10.3-4.3l-4-1.2c-.5-.2-1-.5-1.2-.8-.3-.4-.5-.9-.6-1.3 0-.5 0-1 .3-1.4.2-.4.5-.7 1-1 7-3 16-1 22.8 4 3.4 2.4 6.3 5.5 8 9a17 17 0 0 1 1.7 10.6c-.7 4.1-2.4 7.4-4.9 9.9ZM77.1 104.6c2-1 3.6 3.1 4 4.2l.9 2.3a26 26 0 0 0 5.7 10.2c2.4 2.3 6.3 4.3 9 1.6 2.7-2.6 1.4-5.4 1.8-8.6.7-5.6 8.4-11.3 13-5.4 10.5 13.4-5.7 31.9-20.6 28.6a23 23 0 0 1-16.2-15l-.1-.3c-1.5-4.6-3-15.2 2.5-17.6Zm135.1 9.2v-.1c-5-11.4 12.7-16.2 14.3-6v.6c1.5 11.3-1.6 26.5-15.4 27.7-15.6 1.2-22-16.1-20.6-28.8.2-2.3 3-2.6 3.8-.6l.2.5c2.5 6.4 4.9 18.7 13.7 18.7 6 0 5.7-8 4-12ZM223.5 81c9-.3 9 13.7 0 13.9-29.8.7-59.6 1.6-89.4 1.8h-5.5c-28 .2-56 .6-84-1.8-2.4-.2-2-3.5 0-3.4 29.3-4.2 59-5.4 88.5-7 30-1.6 60.3-2.4 90.4-3.5Z" fill="#000"/></g><g transform="translate(279 400)"><path fill-rule="evenodd" clip-rule="evenodd" d="M117.7 95.2c8.1-19 25.8-33 46.1-38 15-3.7 30.7-3.6 45.9-2.1 8 .7 16.5 1.4 24 4.3a35.3 35.3 0 0 1 15.6 13 73.2 73.2 0 0 1 11 25.4c-1 5.9-3 10.9-8.5 14.6-5.3 3.6-11.6 5-18 5.6l-1.7-.9c-10-5.6-16.9-19-29.3-17.2-11.1 1.6-18.5 15.6-25 23.8a87 87 0 0 1-59.8-16c-.8-4.2-.9-8.4-.3-12.5Zm157-14.4a78 78 0 0 0-42.9-46c-36-15.6-82.8-4.7-112 20.7-10 8.7-20 21.4-23 35.1a5 5 0 0 0-2.5 1.3c-21-13.2-42.8-26-59.8-44.4A118.3 118.3 0 0 1 8.4 1c-.5-1.5-2.8-1.3-2.7.3v1.1c-.2-.6-1.2-.3-1.3.4-2.8 21-6.4 43.5-3 64.7 1.8 12.6 7.6 22 15.3 32a316.6 316.6 0 0 0 27 30.2c6.1 6 12.5 13 19.9 17.5 8.6 5.2 18.4 9.2 27.6 13.2 9.3 4 18.8 7.8 28.5 11 19.3 6.6 39.3 11.1 59.7 13.1 16.3 1.6 34.9 3.3 50.5-2.8a68.2 68.2 0 0 0 29.3-23.4c8.3-11.1 15-23.8 18.6-37.2 3.7-13.8-2.2-38-3-40.3Z" fill="#000"/></g><g transform="translate(179 343)"></g><g transform="translate(203 303)"><path fill-rule="evenodd" clip-rule="evenodd" d="M372.3 95.5a45.1 45.1 0 0 1-48.6 9.4c-41.4-17.4-21.1-71.4 10.9-86 4-1 9.3-3.3 14.2-3.8.4-.2 1.4.4 2.5-.2 35.3 4 43.3 58.7 21 80.6Zm-133.8 3.2a51.2 51.2 0 0 1-59.6 15.2c-40.8-16-26.4-64 1.6-82.8 59-22.2 83.4 34.3 58 67.6Zm-88.5-40h-.2l.7-.4-.2.6-.3-.2ZM400.4 39c-3.3 0-8.1.6-10.9 2.9-6.8-23-32-44.2-53.8-28.7a60.7 60.7 0 0 0-37.2 34.1c-13-7.8-33.6-4.5-45 5.8-7.4-24.5-25.7-33.1-47.5-34.4-23.7-3.9-47.4 19.2-54.8 37.7-6.1-.7-15.3-2.6-21 1.1C92.5 47.8 27 42.4 19.3 48c-5.4 2-8.4 14.9-.8 15.6 6.6-1-.8-9.4 5.9-10.4 35.5-2.2 70 5 105.1 8 3.2 4.2 13.3 5.6 18.7 4-8.5 31.3 9.9 52.7 37.4 59 42.7 9.9 79.8-28.3 68.7-68 12.9-6.4 27.8-6.1 41.8-2.8-23.5 86.6 116 82.8 94.2-8.3 14.5 7.2 17.6-4.4 10-5.9Z" fill="#000"/></g></g></svg>