<svg xmlns="http://www.w3.org/2000/svg" viewBox="0 0 704 704" fill="none" shape-rendering="auto"><metadata xmlns:rdf="http://www.w3.org/1999/02/22-rdf-syntax-ns#" xmlns:xsi="http://www.w3.org/2001/XMLSchema-instance" xmlns:dc="http://purl.org/dc/elements/1.1/" xmlns:dcterms="http://purl.org/dc/terms/"><rdf:RDF><rdf:Description><dc:title>Open Peeps</dc:title><dc:creator>Pablo Stanley</dc:creator><dc:source xsi:type="dcterms:URI">https://www.openpeeps.com/</dc:source><dcterms:license xsi:type="dcterms:URI">https://creativecommons.org/publicdomain/zero/1.0/</dcterms:license><dc:rights>Remix of „Open Peeps” (https://www.openpeeps.com/) by „Pablo Stanley”, licensed under „CC0 1.0” (https://creativecommons.org/publicdomain/zero/1.0/)</dc:rights></rdf:Description></rdf:RDF></metadata><mask id="viewboxMask"><rect width="704" height="704" rx="0" ry="0" x="0" y="0" fill="#fff" /></mask><g mask="url(#viewboxMask)"><g fill-rule="evenodd" clip-rule="evenodd"><path d="M705.3 1074a2351.1 2351.1 0 0 1-15.6-101c-1-7.7-2.5-16.4 2.7-22 7.3-8 14-14.8 14.8-26.2.8-10.7-2.8-22.4-5-32.8a809.4 809.4 0 0 0-17.3-64.7c-6.6-21.7-13.9-43.2-21.3-64.6-6.9-20-13.5-40.3-22.5-59.5-17-36.5-46-63.5-81.6-81.6-9-4.5-27-20.5-36.3-24-8.5-3.4-8.5 6.3-16.9 2.6-6.7-2.9-13-6.7-16.7-13.2-4-7-14.3-16.9-15.9-25-3.3-17.4.3-32.2-12-45.3a90 90 0 0 0-41.1-23.8c-33.7-9.3-78.5-2.8-98.8 28.5-9.7 14.9-13 33-26.2 45.1-11.4 10.7-8.8 18-23.6 23.4-.9.3-23.6-4.5-24.4-4.2-16.2-3.5-31.7 6.2-46.5 11.8a325.4 325.4 0 0 0-63 32.3 399.2 399.2 0 0 0-102.3 98.5 482.5 482.5 0 0 0-76.4 161c-1.7 6.4-3.5 13-1.5 19.4 1.7 5.3 5.4 9.2 9.8 12.4 6 4.3 18 7 17.7 15.7-.1 6.6-2.4 13.5-3.5 20-1.3 7.7-2.3 15.5-3.4 23.2-4.8 35.4-8.6 71-10.3 106.6a920 920 0 0 0-.5 106c.1 2.3.8 4.5 2 6.2-1 .4-1.2 2.4.1 2.7l2.7.5a12 12 0 0 0 7 2.4l5.5.2c19.3 4 38.6 7.9 58.1 10.8 23.8 3.5 47.6 6.3 71.5 8.7 49.2 4.8 98 3.2 147.1.6a1877 1877 0 0 1 147.4-2c49.2 1.4 98.4 3.5 147.6 4.4 55 1 110-.5 164.8-5 7.5-.5 12.2-6.5 10.7-14-8.9-44.7-19-89.1-27-134Z" fill="#694d3d"/><path d="m201 597.5 1.2-.4c14.5-5.7 29.6-14.8 45.4-11.4.5-.2 10.8 1.9 17.9 3.2l-6.7 7L247 598c40.7 67.1 88.8 100.7 144.3 100.7 55.5 0 97.7-33.6 126.4-100.7l4-1c.4 0 1 .2 1.5.4 9.3 3.6 27.4 19.6 36.3 24.1 35.6 18 64.5 45 81.6 81.6 8.7 18.6 15.2 38 21.8 57.5l.7 2c7.4 21.4 14.7 43 21.3 64.6 6.3 20.4 12 41 16.6 61.8l.7 2.9c2.2 10.4 5.8 22 5 32.8a29 29 0 0 1-3 10.7l-80.4 29 38.4 261.3c-35.1 1.5-70.3 2-105.5 1.3-49.2-.9-98.4-3-147.6-4.3-47.7-1.2-95.3-.7-143 1.7l-12 .6a946.3 946.3 0 0 1-139.5-1l-3.1-.3v-38.3l16.3-212.9-83-15.6-81.3-39.5a21.7 21.7 0 0 1-5.6-8.8c-1.9-6-.5-12 1-18l.5-1.3a492.8 492.8 0 0 1 76.4-161A399.3 399.3 0 0 1 138 629.7c19.8-13 40.9-23.9 63-32.3Z" fill="#9ddadb"/><path d="M232.2 584.6c5.1-.3 10.3.6 15.4 1 .4.1.6.8 0 .9-9 1.9-18 4.5-26.9 7.1l-3.8 1.2c-10 3-19.8 6-29.6 10-19.4 7.9-37.8 18.5-54.8 30.8C67.2 682.8 20 754.3-9.9 828.3a526 526 0 0 0-24.3 77c-.4 1.6-2 5.4-1 7 .7 1.3 3.6 2.1 5 2.9l4.5 2.3 25.2 12.9 2.3 1.1c38 18.6 78.4 34.4 121 35.5l.4-3.7a342 342 0 0 1 9.9-60c.3-1 1.6-.6 1.7.3 3 23.1 2 46.4 1 69.7-1.8 41-4.3 82.2-6.5 123.3-1.2 20.6-2.6 41-3.9 61.7-1.3 20.5-1.7 41.6-4.7 62-.6 4.6-6 7-10 6.6-4.4-.5-7.9-4.5-8-9 0-11.9 1.5-24 2.4-35.8l2.5-33.8c3.1-41.1 6.8-82.2 10.2-123.3a4771 4771 0 0 1 3.8-43.7C76.4 979.8 34.2 963-6.1 943.5c-.6 13.2-2 26.5-3.4 39.6-3.8 36.8-7.1 73.6-9.6 110.5a2254.2 2254.2 0 0 0-4.2 92.7l-.2 7c0 4.4-.5 8.5-4.3 11.7-3.7 3.3-8.9 3.5-12.6 0-5-4.6-4.2-10.9-4-17.1a1675.6 1675.6 0 0 1 1.8-47.2 1321 1321 0 0 1 10.5-109.5l2-14c3.5-26 7.5-52.7 15.5-77.9-3.1-1.5-6.2-3-9.3-4.7-5.5-2.7-11.2-5.4-16.6-8.4-4.2-2.5-7.9-5.8-9-10.8-1.4-5.5.6-11.5 2-16.9v-.4a502 502 0 0 1 26.6-80 523.2 523.2 0 0 1 67.8-117 353.8 353.8 0 0 1 88.7-83.3 239 239 0 0 1 53.8-25.7 142.6 142.6 0 0 1 42.8-7.5Zm90.1-66c6-6.5 18.1.2 15.2 8.8a108.2 108.2 0 0 1-34.7 52A79.4 79.4 0 0 1 247 598l1.7 2.4a321.1 321.1 0 0 0 46.1 52.6c36 31.2 84.8 48 132 36 37.1-9.4 69.8-38.8 79.4-76.2-1.3.6-3 .9-4.8.5-7.7-1.7-15.3-9.8-20.3-15.6-5.3-6.3-9.5-13-12.6-20.7-5.6-14-7.4-32.1.3-45.7 1-1.7 3-.7 3.3 1l.3 2.5c1.5 12.7 3.3 25 9.3 36.6a76 76 0 0 0 18.2 23.1c2.6 2 5.8 3.6 8.1 6l.5.4c.6-5 4.1-7.3 7.6-7.2 3.3.2 7.3 1.6 8.8 2.3l.1.1a341 341 0 0 1 65.1 42 259 259 0 0 1 88.4 129c7.5 25.3 11.8 51.4 16.3 77.4l2.8 16c4.2 23.9 8.9 48.4 18.4 70.7 2.5 5.7.6 11.1-5.5 13.4A1493 1493 0 0 1 688 953c3.7 16 6 32.5 8.7 48.5 6 34.1 13.2 68 19.4 102 3.2 17.5 6.1 35 9.3 52.3l4.7 25.2 2.4 13.6.1.7c.5 2.4 1 4.9.4 7.3-.8 2.7-2.9 4.6-4.8 6.6-1.6 1.6-3.8 1.6-5.7.7l-.7-.3c-3.4-1.6-6-3.2-7.3-7-.7-2.5-1-5.2-1.5-7.7a3535.6 3535.6 0 0 1-7.8-43.6l-1.6-9.1c-5.2-31.4-10.2-62.9-12.8-94.5-1-14-2.3-28.1-3.5-42.2l-.9-10.5c-1.1-13.3-2.5-27-2.7-40.5l-4.5 1.6L657 964c-5.5 2-12.5 6-18.4 5.2-2.9-.3-5-1.2-6.8-2.9 2 28.8 4.8 57.4 8.5 86a1965.7 1965.7 0 0 0 22 135c.6 3.2 1.4 6.4 1.9 9.6.5 3.7-.5 5.9-2.5 9-1.7 2.4-5 3.7-7.8 2-3.6-2.3-5.5-4.3-6.5-8.4-1-3.7-1.6-7.6-2.3-11.4a1654.2 1654.2 0 0 1-11.4-65.2c-7.8-52-12.7-104.4-15.2-156.8a1388 1388 0 0 1-1.4-77.8c0-13.3.5-26.6 1.4-39.9 1-13.4 3-26.5 4.8-39.8 0-.5.7-.5.7 0 .8 14.9 2.1 29.8 2.8 44.7.6 14.3.9 28.5 1.4 42.8.6 18.7 1.5 37.5 2.7 56.2a9.6 9.6 0 0 1 8.5-3.1c4.7-1 9.7-3.4 14.1-5l16.8-5.5 26.4-8.7a679 679 0 0 1-18-80.8l-2-12.3c-4-24.2-8.5-48.5-15.8-72a229.8 229.8 0 0 0-34.8-68.2 370.2 370.2 0 0 0-52.7-55.3C557 627 539.7 614 523 600c.1.9.2 2 0 3-3.5 25.9-17 50-35.8 67.9-37.7 36-93.6 43.4-142 26.5-46.7-16.3-88-55-102.6-102.8-.3-.8.8-1 1.3-.5l2.4 3.3c0-.4.2-.9.7-1a129 129 0 0 0 46.6-29.2 100.2 100.2 0 0 0 21.3-33.3l.4-1c1.7-5 3.2-10.2 7-14.2Z" fill="#000"/></g><g transform="matrix(.99789 0 0 1 156 62)"><g fill-rule="evenodd" clip-rule="evenodd"><path d="M418.4 337.6c-6.2-45.2-20.6-89.2-22.6-135l-3.7-59c-.5-12.3-16.4-16.5-22.5-5.6-13.9-15.3-38.7-13-57.6-12.6-111.3 4-217 79.2-255.3 184.2a10 10 0 0 0 .4 7.5c-17.8 59.4 45.2 97.6 88.1 124.1 17.5 18.5 38 33.8 61 44.2a214.2 214.2 0 0 0 85.7 20.2c6.5.1 10.4-5 10.8-10.5 9.4-2.2 25.5.4 30.4-9.2 56.6-24.6 93.4-86.9 85.3-148.3Z" fill="#694d3d"/><path d="M392 177.2c-.2-1.5 2-1.6 2.4-.4 3.5 9.8 7.3 19.5 10 29.5 2.8 9.7 4.8 19.5 6.8 29.4 3.3 16.3 6.2 32.7 8.5 49.2 5-4 11.6-4.3 17.8-1.2 3 1.4 4 5.2 3.4 8.1-.6 2.4-1.3 4.7-2.1 7 1.8 1.6 3.2 3.5 4.3 5.7 2.9 5.8 2 12-.6 17.4l.6 1c3.7 7.3 1.7 13.7-1 20.7-2 5.3-1 11.2-5.3 15.2a40.2 40.2 0 0 1-10.3 16.8c-.4 7.7-1.2 15.4-2.7 23-6 29.6-24.8 56-48.2 74.5a155 155 0 0 1-78.6 32.6c-14.1 1.7-28.2 1.2-42.1-1.3l-1.8-.3c-12.9-2.3-28.4-6.2-37.3-15.9-4.7-5-2-16.3 6.3-15.3 4.4.6 8.2 1.3 12.3 3a115.7 115.7 0 0 0 29.2 7.9 130 130 0 0 0 41.5-1.5c24.6-4.8 48.5-16 67.2-32.9 21.7-19.6 34.4-45 36.3-74.2 2-32.6-1.7-66-4.8-98.4a995.4 995.4 0 0 0-6.2-50.5c-2.4-16.3-3.8-32.7-5.6-49.1ZM199.8 71.9l1-.1c41.9-6.4 85.8-6 125.1 11.3 7.6 3.3 15 7.3 21.9 12 5-.6 10-1 14.8-1 6.2-.2 12.3 3 13 9.3 5.8.7 11.1 2.8 14.5 7.1 1.4 1.7 2.3 3.6 2.7 5.6 3.6.8 7 2.1 10.4 3.8 4 2 6.3 7.8 4.9 12.1l-1.1 2.8-.3.7.1.3c3.3 5.1 1 12-3.9 15a37.6 37.6 0 0 1-12 5l.9 5.2c0 .7-.8 1.2-1.2.5 0 0 1.5 4.7 3.8 10 .9 2-2 3.8-3 1.7-3-5.5-4.8-11.2-7.5-16.8-2.4-.2-4.9-.8-7.2-1.8a8 8 0 0 1-3.6-3.3v.2c-8 10.1-23.4 13.7-35.3 16.9a275 275 0 0 1-39 7.1c-23 2.8-46.2 3.3-69.2 4.3l-4.6.3a63.6 63.6 0 0 1-54.6 13.8 21 21 0 0 1-9.2 5.5c-.7 13.1-8 25.5-19 32.8l.2.8c2.7 11.1 2.7 23.4-7.1 31.1a24 24 0 0 1-4.4 2.7l.4.8c5 11.9 6.7 25-2.9 34.9-3.8 4-10.6 3-13.6-1.6v-.2l-.6-.8c-.3.5-.7 1-1.2 1.2-3.7 1.6-5.1.4-8.4-1.2a51.6 51.6 0 0 0-17.7-5c-17 6.6-28 26.6-25.4 45.3 1.4 10.2 7 20.4 16.8 24.6 4.2 1.9 9.3 2.6 14 2 6.2-.8 11-4.8 17.5-2.5a6 6 0 0 1 4.3 5.6 12 12 0 0 1-3.9 10c4.6 3.8 8.2 9 12.2 13.3 5 5.2 10 10.5 15.3 15.4 5 4.6 10.4 8.9 16 12.7l.6.4c7.2 4.6 16.1 8.7 16.5 18.4 0 3-1.7 5.6-4 7-9 5.6-18.8-1.7-25.9-7l-8.2-6.7c-1.8.1-3.7-.1-5.7-1l-3.8-2c-4 1-7.8.2-11-2a30.3 30.3 0 0 1-13.3.4c-3.7-.8-7-2.6-9.7-5a21 21 0 0 1-17.7-1.9c-3.4-2-6-5-7.4-8.5a7.6 7.6 0 0 1-1.3-3.9v-.5c-4.9 0-9.8-1.6-13.6-5.5-3.4-3.6-5.1-8-5.3-12.5-5-1.4-9.5-4.3-12.9-8.7a25.3 25.3 0 0 1-3.5-24.5l-.5-1.3a36.6 36.6 0 0 1-7.3-21.9c0-1.2.2-2.3.4-3.5A14.5 14.5 0 0 1 16 308a19.7 19.7 0 0 1 2-19c0-1 0-1.8.2-2.8l-.5-2.9c-.8-10.7 6.6-20 15.6-25 2.4-1.3 5-2.4 7.5-3.3 1.9-.6 4.7-.8 6.3-2 0-.1.6-1 .7-1.5l.4-1.7c.2-2.5 0-5 0-7.5a272 272 0 0 1 1.3-34A148 148 0 0 1 67.7 149a135 135 0 0 1 35-38.9c28-21.3 62.7-32.8 97-38.2ZM70.7 331.1c-3.7-8.7 13.4-8.8 18-8.4 10.2 1 26.1 6 30.3 16.2 1.7 4.2-3.4 8.8-7.5 7.4-4-1.4-6.2-4.3-9.4-6.9l-2.6-1.9a9.5 9.5 0 0 0 2.2 4l.3.2c5 4.4-3.9 11.3-7.2 5.5a15.5 15.5 0 0 1-1.8-10c.1-1.1.4-2 .8-3l-1-.5-.6-.2c-3.9-1.8-20.6-8.8-20.4-2.6 0 .7-1 .7-1.1.2Z" fill="#000"/></g></g><g transform="translate(315 248)"><g fill-rule="evenodd" clip-rule="evenodd"><path d="M95 163c26.5 0 48-18.8 48-42s-21.5-42-48-42-55.2 18-55.2 41.2c0 9.9 7.8 27 14.2 34.2 8.8 9.8 25.7 8.6 41 8.6ZM209.3 155c20.2 0 36.7-17 36.7-38s-16.5-38-36.7-38C189 79 167 95.3 167 116.3c0 8.9 6 24.4 10.9 31 6.7 8.7 19.7 7.7 31.4 7.7Z" fill="#fff"/><path d="M94.3 189c.2-.1.6-.2.8 0 4.4 2.7 4.9 12 5 17.2l5.1 1.4 10.7 2.2 2.7.5c9 2 18 3.3 27.1 4 8.8.7 18 1 26.7-.2 3.8-.5 7.6-1.3 11.2-2.4 4.3-1.3 7.8-3.4 11.8-5.3 10-4.7 18.5 9 8.8 15a68 68 0 0 1-29.2 8 157.6 157.6 0 0 1-59.9-9.6 107 107 0 0 1-12.2-5.7l-1.1-.6-2-1a70 70 0 0 1-5.5 19.1 8.5 8.5 0 0 1-11.7 5.6c-6-2.5-6.4-9-3-13.8l.2-.2c4-5.2 6.7-11.8 8.9-18 1.1-3.1 2.2-6.4 3-9.7.8-2.3.8-4.7 2.6-6.4Zm153.9-52.7a34.7 34.7 0 0 1-22 22.6 68.2 68.2 0 0 1-33.4.3l-7.2-1.4c2 1.2 3.7 3 5.3 4.7 2.5 2.7 4.7 5.6 5.4 9 .7 3.3-.4 5.8-2.3 7.7-3 3-7.8 4.6-11.8 5.4a63 63 0 0 1-27.3-.3 6.9 6.9 0 0 1-4.8-3.4 9 9 0 0 1-.5-6.6 9 9 0 0 1 3.8-5.4c1.6-1 3.6-1.2 5.8-.5a46.6 46.6 0 0 0 23.3 2 84.6 84.6 0 0 1-9.3-16 84.3 84.3 0 0 1-1.5-3.8l-.4-.4a26.7 26.7 0 0 1-7-9.3 52.4 52.4 0 0 1-1-33.7A42.6 42.6 0 0 1 177 85.4a22 22 0 0 1 2.8-4c3.8-3.9 9-6.5 14.1-8.1 11.5-3.6 24-1 33.6 5.8 9 6.3 16 15.8 19.7 26.3 3.6 10 4.3 20.8 1 31Zm-155.7-65a64.8 64.8 0 0 1 38.5 12c10.5 7.6 18.8 19 18.8 32.5 0 13.1-7 26-14.9 36.3a41.6 41.6 0 0 1-34.5 17c-7.5.1-15-.6-22.5-1.5l-4-.5c-5.4-.7-11-1.5-16.2-3.4-24.7-9-25.5-41.4-16.3-62 7-16 25-31.6 42.8-29.8 2.7-.3 5.5-.5 8.3-.6Zm23 15.3a65.1 65.1 0 0 0-54.2 2.8A56.8 56.8 0 0 0 48 113.7c-2 8.9-1.7 18.3 1.4 26.9 3.8 10.4 13 13 23.2 14.6l3.9.6 1.6.3a92.6 92.6 0 0 0 30.2.7c10.6-2 17.4-10.6 22.7-19.4l.2-.4c5.5-9.2 10.1-20.4 5.5-30.9-4-9-12.5-15.6-21.2-19.5Zm100.4 2.6a23 23 0 0 0-26.1 2.5l-1 .7c-2.7 2.1-5.3 3.2-7.4 6.1l-.3.4c-1 1.6-3 2.2-4.6 2-2 5.4-2.8 11.3-2.8 17v1.6c.1 6.8 1.3 15.1 6.7 19.7 4.9 4.2 12.3 5.2 19 5.8l5 .4h1.4c7 .6 14.6.4 20.4-3.7 5.1-3.6 7.5-9.7 8.1-15.7A38.4 38.4 0 0 0 216 89.2ZM88.8 90.5a27.3 27.3 0 0 1 28.6 2.4 8 8 0 0 0-2.1.7c-1.8 1-3 2.7-3.4 4.6-.5 2.2.7 4.3 2.8 5 1.9.6 4.1.8 5.8-.3 1-.6 1.6-1.4 2-2.4v-.1l.1-.1a12 12 0 0 0 .3-.8l.3-.3c1.5 2.2 2.6 4.8 3.3 7.5 4.6 18-14.3 36.5-31.2 38.4-6.4.7-12.2-.9-17-3.9v-.1c2 .3 4.3-.5 5-2.7 1.9-5.5 0-12-6-13.8-3.9-1.2-7.9.1-10.6 2.8-2.1-5.2-2.9-11-1.9-16.7a24.9 24.9 0 0 1 14-19c3.7-1.6 7-2 10-1.2Zm98.7 11 .3-.4c2.9-4.4 8.4-9.9 14.1-8.4.8.2 1.6.6 2.3 1a14 14 0 0 1 9.2 2v.2c-.3 1.1-.2 2.1.3 3.1.6 1.1 1.3 2.1 2.4 2.7.7.5 1.6.7 2.4.7 1.2 0 2.3-.6 3.2-1.4.5-.5.8-1.1 1-1.8l1.3 1.4a24.4 24.4 0 0 1-2 30.6l-1 1c-3.2 4.3-8.1 7.2-14 7.8a21 21 0 0 1-15-4.3l1-.7a9.8 9.8 0 0 0 2-3.4l.1-.3.2-.6v-.2c.8-1.9.5-4-1.3-5.2h-.2a4 4 0 0 0-2-.6c-1.8-2.2-4.5-2.7-7-2v-.8l-.1-.3c-2-6.5-1-13.9 2.8-20Zm-86.8-65.2h.6c5-.8 8.3 0 11.5 4.2 1.5 2 1 5 0 7-3.4 6.7-12.8 5.3-19 6.6a90.4 90.4 0 0 0-34.9 14.7c-4.8 3.2-9.2 8-14.8 9.8-.2 0-.5-.2-.5-.4.4-6.3 5.7-12.1 9.7-16.6A76.5 76.5 0 0 1 69.8 48a89.3 89.3 0 0 1 30.9-11.8Zm74.8 8.6c6.1-9 21.5-7.3 30.6-4.9 11.3 3 23.7 9.2 31.6 18 7.2 8-3.5 18.3-11.5 11.6l-2.2-1.8-1.4-1.1c-6.1-5-12.2-9.6-19.7-13-8.8-3.9-17.8-5.8-27-8-.4 0-.7-.5-.4-.8Z" fill="#000"/></g></g><g transform="translate(279 400)"></g><g transform="translate(179 343)"></g><g transform="translate(203 303)"></g></g></svg>