<svg xmlns="http://www.w3.org/2000/svg" viewBox="0 0 704 704" fill="none" shape-rendering="auto"><metadata xmlns:rdf="http://www.w3.org/1999/02/22-rdf-syntax-ns#" xmlns:xsi="http://www.w3.org/2001/XMLSchema-instance" xmlns:dc="http://purl.org/dc/elements/1.1/" xmlns:dcterms="http://purl.org/dc/terms/"><rdf:RDF><rdf:Description><dc:title>Open Peeps</dc:title><dc:creator>Pablo Stanley</dc:creator><dc:source xsi:type="dcterms:URI">https://www.openpeeps.com/</dc:source><dcterms:license xsi:type="dcterms:URI">https://creativecommons.org/publicdomain/zero/1.0/</dcterms:license><dc:rights>Remix of „Open Peeps” (https://www.openpeeps.com/) by „Pablo Stanley”, licensed under „CC0 1.0” (https://creativecommons.org/publicdomain/zero/1.0/)</dc:rights></rdf:Description></rdf:RDF></metadata><mask id="viewboxMask"><rect width="704" height="704" rx="0" ry="0" x="0" y="0" fill="#fff" /></mask><g mask="url(#viewboxMask)"><g fill-rule="evenodd" clip-rule="evenodd"><path d="M705.3 1074a2351.1 2351.1 0 0 1-15.6-101c-1-7.7-2.5-16.4 2.7-22 7.3-8 14-14.8 14.8-26.2.8-10.7-2.8-22.4-5-32.8a809.4 809.4 0 0 0-17.3-64.7c-6.6-21.7-13.9-43.2-21.3-64.6-6.9-20-13.5-40.3-22.5-59.5-17-36.5-46-63.5-81.6-81.6-9-4.5-27-20.5-36.3-24-8.5-3.4-8.5 6.3-16.9 2.6-6.7-2.9-13-6.7-16.7-13.2-4-7-14.3-16.9-15.9-25-3.3-17.4.3-32.2-12-45.3a90 90 0 0 0-41.1-23.8c-33.7-9.3-78.5-2.8-98.8 28.5-9.7 14.9-13 33-26.2 45.1-11.4 10.7-8.8 18-23.6 23.4-.9.3-23.6-4.5-24.4-4.2-16.2-3.5-31.7 6.2-46.5 11.8a325.4 325.4 0 0 0-63 32.3 399.2 399.2 0 0 0-102.3 98.5 482.5 482.5 0 0 0-76.4 161c-1.7 6.4-3.5 13-1.5 19.4 1.7 5.3 5.4 9.2 9.8 12.4 6 4.3 18 7 17.7 15.7-.1 6.6-2.4 13.5-3.5 20-1.3 7.7-2.3 15.5-3.4 23.2-4.8 35.4-8.6 71-10.3 106.6a920 920 0 0 0-.5 106c.1 2.3.8 4.5 2 6.2-1 .4-1.2 2.4.1 2.7l2.7.5a12 12 0 0 0 7 2.4l5.5.2c19.3 4 38.6 7.9 58.1 10.8 23.8 3.5 47.6 6.3 71.5 8.7 49.2 4.8 98 3.2 147.1.6a1877 1877 0 0 1 147.4-2c49.2 1.4 98.4 3.5 147.6 4.4 55 1 110-.5 164.8-5 7.5-.5 12.2-6.5 10.7-14-8.9-44.7-19-89.1-27-134Z" fill="#ffdbb4"/><path d="m201 597.5 1.2-.4c14.5-5.7 29.6-14.8 45.4-11.4.5-.2 10.8 1.9 17.9 3.2l-6.7 7L247 598c40.7 67.1 88.8 100.7 144.3 100.7 55.5 0 97.7-33.6 126.4-100.7l4-1c.4 0 1 .2 1.5.4 9.3 3.6 27.4 19.6 36.3 24.1 35.6 18 64.5 45 81.6 81.6 8.7 18.6 15.2 38 21.8 57.5l.7 2c7.4 21.4 14.7 43 21.3 64.6 6.3 20.4 12 41 16.6 61.8l.7 2.9c2.2 10.4 5.8 22 5 32.8a29 29 0 0 1-3 10.7l-80.4 29 38.4 261.3c-35.1 1.5-70.3 2-105.5 1.3-49.2-.9-98.4-3-147.6-4.3-47.7-1.2-95.3-.7-143 1.7l-12 .6a946.3 946.3 0 0 1-139.5-1l-3.1-.3v-38.3l16.3-212.9-83-15.6-81.3-39.5a21.7 21.7 0 0 1-5.6-8.8c-1.9-6-.5-12 1-18l.5-1.3a492.8 492.8 0 0 1 76.4-161A399.3 399.3 0 0 1 138 629.7c19.8-13 40.9-23.9 63-32.3Z" fill="#78e185"/><path d="M232.2 584.6c5.1-.3 10.3.6 15.4 1 .4.1.6.8 0 .9-9 1.9-18 4.5-26.9 7.1l-3.8 1.2c-10 3-19.8 6-29.6 10-19.4 7.9-37.8 18.5-54.8 30.8C67.2 682.8 20 754.3-9.9 828.3a526 526 0 0 0-24.3 77c-.4 1.6-2 5.4-1 7 .7 1.3 3.6 2.1 5 2.9l4.5 2.3 25.2 12.9 2.3 1.1c38 18.6 78.4 34.4 121 35.5l.4-3.7a342 342 0 0 1 9.9-60c.3-1 1.6-.6 1.7.3 3 23.1 2 46.4 1 69.7-1.8 41-4.3 82.2-6.5 123.3-1.2 20.6-2.6 41-3.9 61.7-1.3 20.5-1.7 41.6-4.7 62-.6 4.6-6 7-10 6.6-4.4-.5-7.9-4.5-8-9 0-11.9 1.5-24 2.4-35.8l2.5-33.8c3.1-41.1 6.8-82.2 10.2-123.3a4771 4771 0 0 1 3.8-43.7C76.4 979.8 34.2 963-6.1 943.5c-.6 13.2-2 26.5-3.4 39.6-3.8 36.8-7.1 73.6-9.6 110.5a2254.2 2254.2 0 0 0-4.2 92.7l-.2 7c0 4.4-.5 8.5-4.3 11.7-3.7 3.3-8.9 3.5-12.6 0-5-4.6-4.2-10.9-4-17.1a1675.6 1675.6 0 0 1 1.8-47.2 1321 1321 0 0 1 10.5-109.5l2-14c3.5-26 7.5-52.7 15.5-77.9-3.1-1.5-6.2-3-9.3-4.7-5.5-2.7-11.2-5.4-16.6-8.4-4.2-2.5-7.9-5.8-9-10.8-1.4-5.5.6-11.5 2-16.9v-.4a502 502 0 0 1 26.6-80 523.2 523.2 0 0 1 67.8-117 353.8 353.8 0 0 1 88.7-83.3 239 239 0 0 1 53.8-25.7 142.6 142.6 0 0 1 42.8-7.5Zm90.1-66c6-6.5 18.1.2 15.2 8.8a108.2 108.2 0 0 1-34.7 52A79.4 79.4 0 0 1 247 598l1.7 2.4a321.1 321.1 0 0 0 46.1 52.6c36 31.2 84.8 48 132 36 37.1-9.4 69.8-38.8 79.4-76.2-1.3.6-3 .9-4.8.5-7.7-1.7-15.3-9.8-20.3-15.6-5.3-6.3-9.5-13-12.6-20.7-5.6-14-7.4-32.1.3-45.7 1-1.7 3-.7 3.3 1l.3 2.5c1.5 12.7 3.3 25 9.3 36.6a76 76 0 0 0 18.2 23.1c2.6 2 5.8 3.6 8.1 6l.5.4c.6-5 4.1-7.3 7.6-7.2 3.3.2 7.3 1.6 8.8 2.3l.1.1a341 341 0 0 1 65.1 42 259 259 0 0 1 88.4 129c7.5 25.3 11.8 51.4 16.3 77.4l2.8 16c4.2 23.9 8.9 48.4 18.4 70.7 2.5 5.7.6 11.1-5.5 13.4A1493 1493 0 0 1 688 953c3.7 16 6 32.5 8.7 48.5 6 34.1 13.2 68 19.4 102 3.2 17.5 6.1 35 9.3 52.3l4.7 25.2 2.4 13.6.1.7c.5 2.4 1 4.9.4 7.3-.8 2.7-2.9 4.6-4.8 6.6-1.6 1.6-3.8 1.6-5.7.7l-.7-.3c-3.4-1.6-6-3.2-7.3-7-.7-2.5-1-5.2-1.5-7.7a3535.6 3535.6 0 0 1-7.8-43.6l-1.6-9.1c-5.2-31.4-10.2-62.9-12.8-94.5-1-14-2.3-28.1-3.5-42.2l-.9-10.5c-1.1-13.3-2.5-27-2.7-40.5l-4.5 1.6L657 964c-5.5 2-12.5 6-18.4 5.2-2.9-.3-5-1.2-6.8-2.9 2 28.8 4.8 57.4 8.5 86a1965.7 1965.7 0 0 0 22 135c.6 3.2 1.4 6.4 1.9 9.6.5 3.7-.5 5.9-2.5 9-1.7 2.4-5 3.7-7.8 2-3.6-2.3-5.5-4.3-6.5-8.4-1-3.7-1.6-7.6-2.3-11.4a1654.2 1654.2 0 0 1-11.4-65.2c-7.8-52-12.7-104.4-15.2-156.8a1388 1388 0 0 1-1.4-77.8c0-13.3.5-26.6 1.4-39.9 1-13.4 3-26.5 4.8-39.8 0-.5.7-.5.7 0 .8 14.9 2.1 29.8 2.8 44.7.6 14.3.9 28.5 1.4 42.8.6 18.7 1.5 37.5 2.7 56.2a9.6 9.6 0 0 1 8.5-3.1c4.7-1 9.7-3.4 14.1-5l16.8-5.5 26.4-8.7a679 679 0 0 1-18-80.8l-2-12.3c-4-24.2-8.5-48.5-15.8-72a229.8 229.8 0 0 0-34.8-68.2 370.2 370.2 0 0 0-52.7-55.3C557 627 539.7 614 523 600c.1.9.2 2 0 3-3.5 25.9-17 50-35.8 67.9-37.7 36-93.6 43.4-142 26.5-46.7-16.3-88-55-102.6-102.8-.3-.8.8-1 1.3-.5l2.4 3.3c0-.4.2-.9.7-1a129 129 0 0 0 46.6-29.2 100.2 100.2 0 0 0 21.3-33.3l.4-1c1.7-5 3.2-10.2 7-14.2Z" fill="#000"/></g><g transform="matrix(.99789 0 0 1 156 62)"><g fill-rule="evenodd" clip-rule="evenodd"><path d="M256.6 39c56.8 0 127.9 64.7 148.7 92.3 17.5 23.2 15 142.6 15 213.4 0 14.8-6.7 42.8-9.1 57-9 52-47.7 95.4-124.5 95.4-62.6 0-110.7-19.8-157.2-70.4-10.6-11.6-62.5 29.8-73 14.9-27.8 0-51-258.8 3.4-336.4C114.3 27.6 199.8 39 256.6 39Z" fill="#ffdbb4"/><path d="M86 57.2a172.4 172.4 0 0 1 120.5-43.1 223 223 0 0 1 67.2 12.3C284.5 30.1 295 35 305 40.5c3.6 2 7 4.4 10.2 6.8l.7.6A69 69 0 0 1 339 63c14-1 28 .2 41.4 4.5 18.7 6 36 16.9 48.2 32.4a88.6 88.6 0 0 1 17.2 62.8l-.3 3.8c-1.6 20-4.6 45.8-21 59-1.3 1-2.7 1.7-4.1 2.2a232.2 232.2 0 0 1 24.5 58.6c19.8 77.7 4.5 158.7-19.3 233.6-2 6.2-11.3 10.3-16 4.2a52.6 52.6 0 0 0-34.7-20.5c-8.6-1-17 .8-25.2-3.1a23 23 0 0 1-8.4-7 108.9 108.9 0 0 1-42.9 7c-24-1-49.5-9.3-66-27.5-2.6-3-3.2-6.2-2.6-9.1 2-.8 4.2-1.3 6.3-1.7a140.7 140.7 0 0 0 68.6 21c14.3.4 28.2-1.6 39.8-10.6 2.5-1.9 4.8-4 7-6.3 24.1-15.6 41.2-42 49.3-70.4 7.6-26.4 6.7-54 4-81l-1.3-14.3c-2-21-3.9-42-4.4-63.1h.2c5-.4 5.1-8.4 0-8-13.4.8-26.6-1.4-39.8-.4-.2-6.3-.6-12.5-2.5-18.6-1-3.4-7-4.1-7.7 0-.8 5.6-1.1 11-1.2 16.6-19.9-.2-39.8-2-59.6-1.2-3.7-4-4.9-10.9-6.6-15.7l-.7-2.1c-1.5 6.9-3.7 13.6-6.5 20.2h-4.9c-27.6.2-55.8 1-82.8 6.7-2-1.4-3-4-3.3-6.2-2-14.9-4.8-29.3-9.7-43.5l-.8-2-.1-.5a108 108 0 0 1-12.8 16.5c-2.8 3-5.7 6-8.7 8.7l-9 9.7.4 1.8A98 98 0 0 1 133 275l-.2 1c-.8 5.2-2 10.5-4.9 14.4 3.6 4 6.3 8.6 7.8 13.8 1.4 4.7-5 8.7-8.3 4.9-2.7-3-5.6-5.5-8.8-7.5-.3.2-.6.4-1 .2-9-5-24.3-3.5-33.3 1.2-11.1 5.8-15.5 17.8-14.3 30 1.2 11.6 6.3 25.1 16.2 31a14.6 14.6 0 0 0 17-.6l.9-.6c3.1-2.5 6-4.2 9.7-4.3a7 7 0 0 1 9.1 4.4l.1.3c.7 2 2 4.6 1.7 7.7a14.7 14.7 0 0 1-5.4 10c39.1 42.3 44.2 108.3 24.1 161.2l-2.8 6.8c-3.3 7.8-16.2 5.4-17.8-2.3a160.3 160.3 0 0 0-5.4-19.4l-.5-1.5-3.5-10.3-.1-.4-.2-.5-2 4.4-6.2 13.4c-2.9 6.3-12 2.9-12.4-3.1v-.3l-.1-3.3c-.5-8.1-1.9-16-4.1-23.8l-.8 1c-12 14.8-26.2 28.8-45.6 32.2-4.8.9-10.3-4.2-7-9.1l4-6.2a61.2 61.2 0 0 1-21.6-18.3 88.4 88.4 0 0 1-15.5-49.3c-1-18.5.6-37.9 5.6-55.6 2.2-7.7 5.1-15 8.6-22.2l-.7-2A305.8 305.8 0 0 1-2 275.5C-2.7 236 4.1 196 18.5 159.3c14.8-38 37-74.4 67.3-102ZM67.4 402c-2.7-4.2-9.5-.4-7 4 4.4 6.9 6.4 14.6 8.9 22.2 1.6 4.8 9.3 2.8 7.7-2.2l-.5-1.6c-2.5-7.7-4.7-15.5-9.1-22.4Zm23.7-81.6 1.8-1c5.7-2.6 10.6-4.5 17.4-2.1 9 3.2 18.6 13.3 12.5 23a9.5 9.5 0 0 1-10.3 4.2c-6.9-1.4-8.7-7.6-12.2-12.7l-.6-.9c-2.1-3-4.8-7.4-8.4-8.6-.8-.2-1.1-1.5-.2-2Zm5-207.9.6-.5c3.9-3.4-1.8-9-5.6-5.7-17.7 15.6-23.8 40-33 60.7-2 4.7 5 8.8 7 4 8.7-19.7 14.5-43.5 31-58.5Zm211.8-6.8c-4.6-2-8.7 4.6-4.2 6.8l.1.1c15.6 7 22.2 23 28.6 37.7 2 4.8 8.9.7 6.9-4l-1.2-2.6c-6.6-15.3-14.3-30.8-30.2-38Zm24.4-9.6c-5-1.7-7 6-2.2 7.7a61.2 61.2 0 0 1 30 25.8c2.8 4.2 9.7.2 6.8-4A70.2 70.2 0 0 0 332.4 96Z" fill="#000"/></g></g><g transform="translate(315 248)"><g fill-rule="evenodd" clip-rule="evenodd"><path d="m111.4 252.4-10.6-40.3 1.7.2c16.8 2.7 25.1 5.4 25.1 8.2v.1c-.2 3.2-5.6 13.8-16.2 31.8Zm97.2-31.6-3.7 28.8-19.5-21.3 23.2-7.5ZM98.5 149c21.8 0 39.5-16.1 39.5-36s-17.7-36-39.5-36S59 93.1 59 113s17.7 36 39.5 36Z" fill="#fff"/><path d="M157 112c19.9 0 36-15.9 36-35.5A35.8 35.8 0 0 0 157 41c-19.9 0-36 15.9-36 35.5a35.8 35.8 0 0 0 36 35.5Z" fill="#fff"/><path d="M206 142c16 0 29-14.3 29-32s-13-29.5-29-29.5-29 11.8-29 29.5 13 32 29 32Z" fill="#fff"/><path d="M101.2 210.7c7.2-1.4 16.2 1.6 23.5 3h.5c8.8 1.6 17.5 3.4 26.4 4.3 8.5 1 17.1 1 25.6 0a82.2 82.2 0 0 0 17-3.8h.2c1.3-.5 4.5-2.4 4.5-1.4 1-1 2.2-1.8 3.6-2.2 2-.5 4.5 0 6.2 1.4 2.1-1.7 5.3-.5 6.8 1.5 2.4 3.5 1.6 7.6 1.3 11.7v.3c-.3 3.9-.7 7.7-1.2 11.5l-.2 1.6c-.8 5.6-1 14.8-7.8 16.7-5.4 1.4-10.3-4-13.8-8.5l-2-2.4a54.3 54.3 0 0 1-8-13.6l-.1-.5c-10 1.3-20.2 1.2-30.2-.2-6.3-.8-12.6-2-18.7-3.6l-2.8 5c-3.2 5.8-6.5 11.6-10 17.4l-.2.4c-3.3 5.1-8.7 10.3-15.1 6.4-5.7-3.4-6-11.3-6.6-17.1l-.9-11.8V225c-.1-3.8-.8-8.2.7-11.8.2-.5 1-1 1.4-.4 3 3.7 4 9.5 5.3 14 1.5 5.2 3.6 10.7 4.4 16l.2-.4a375 375 0 0 1 2.3-4.2l2.3-4.3 6.4-11.5-7.3-3-5.5-2.2a25.9 25.9 0 0 1-8.6-5.2c-.4-.4-.3-1.3.4-1.4Zm103.7 14c-5.4 2.2-11 3.8-16.7 4.9l1.1 1.1 4.2 4.5.8.9c2.2 2.2 5.5 6 8.9 8l.1-1 .1-.3.4-3.2.1-1.6.8-8.6.2-4.6ZM141 40a40 40 0 0 1 39.1 5.4 46.6 46.6 0 0 1 17 36c8.9-7.7 21.8-1.9 29.3 5.3a37 37 0 0 1 11 32.5 32.7 32.7 0 0 1-22 25.7 31.2 31.2 0 0 1-23.6-2.4l.4 1.5c2.7 11.7 4.3 25 .2 36.5-6.7 18.7-30.5 29.1-45.3 12.6a39.1 39.1 0 0 1-10-25.6c.2-4.6 2.9-10 8.3-9.7 4.2.3 6.2 3.8 5.1 7.5v.2c-2.3 7.2 1.6 17.5 7.2 22.4 8.7 7.5 20.6 1 25.4-7.8 5.5-10.2 4.8-23.3 3-34.4-1.7-11-5.5-21-9.6-31l-1.4.2c-8.2 1.1-24.8 1.5-33.8-4.4 1 9.1-1 18.6-6.1 26.3a34 34 0 0 1-24.7 14.6 87.4 87.4 0 0 1-31-.7c-20.7-5-28-30.6-21.7-49 3.7-11 14-20.8 25.5-23.2a34 34 0 0 1 20.7-4.5c10.2.7 20.3 5.2 27.1 12.9 2.6 3 4.8 6.3 6.4 9.9a5 5 0 0 1 2-1c1.1-.2 2.1-.3 3.2.1a7 7 0 0 1 1.9 1.4l1 1.3c1.4 1.5 2.7 2.9 5.1 3.8a54.3 54.3 0 0 0 23 2.8c18.2-1.4 15.9-25.5 11.4-38a32.8 32.8 0 0 0-36-21.1 35 35 0 0 0-17.9 9.3c-5.4 5.1-7.8 11.4-11 18-.2.3-.9.2-1-.2-2.6-13.8 10-28.2 21.8-33.2ZM44.1 151c-.5-.7.3-1.8 1-1.3 5.9 4 12.3 6.8 19.3 7.6 3.3.3 6.6.3 10-.2 2.7-.4 5.2-1.2 8-.5 1.5.4 1.8 2.2.9 3.2-4.2 5-14.6 3.7-20.3 2.4A35 35 0 0 1 44.2 151Zm195.3-9.2c2.9-1.8 6.2 1.7 4.6 4.5-4.4 7.3-16.9 7.9-24.2 6.1-.5 0-.4-1 .2-1 4.1.1 8-.7 11.5-2.8 3.1-2 5-5 8-6.8Zm-139-58-.5.1c-6.7.1-12.8 2.6-19.2 4l-1.5-.1a30.7 30.7 0 0 0-14 24.1 33.8 33.8 0 0 0 5.8 21.7c5 7 13.2 8 21.2 8.3h.8c15.1.3 31.7-.6 37.1-17.5 4-12.5-.2-27.7-11.3-35.2a32.6 32.6 0 0 0-18.4-5.3Zm121.8 9-.4-.5c-6-6.8-15.3-13-24.6-9.5V84.6c0 13.1-5 25.4-17.6 29.2 3.4 4.8 6 10.2 8.2 15.7.8-.5 1.7-.8 2.8-1 4.4-.4 7 3.7 10.7 5.3 3.6 1.4 7.7 1.8 11.4 1 8.3-1.6 14-8.7 16.1-16.6 2.3-9-.7-18.3-6.6-25.2ZM96.5 104c2.8-4.6 9.6-4 12.3.1l.1.3a12.6 12.6 0 0 1-4.2 18.4c-5.3 2.6-12 2-15.5-3.2a9.1 9.1 0 0 1-1.5-4c0-.9 0-1.8.2-2.7v.2l.2-1.4c.5-1.9 1.6-4 3-5.3a8.5 8.5 0 0 1 5.4-2.4Zm113.2-4.8c2.4 0 4.6 1 6.4 2.6 2.5 2.3 2.8 5.6 2.3 8.8l-.7 2.8-.2.9v.4a7 7 0 0 1-.7 1.6c-1 4-5.3 5.8-9 5a7.5 7.5 0 0 1-5-4.9l-.8-1.7-.3-1.3-.7-2.8c-.6-3.3 0-6.3 2.3-8.8 1.7-1.6 4-2.6 6.4-2.6ZM156 65.5c4.2-.6 8.5 1.4 10.7 5.2a11 11 0 0 1 0 10.8l-.1.3c-3.5 6-11.7 6.8-16.6 2.1l-.2-.2a10.7 10.7 0 0 1 6.2-18.2Z" fill="#000"/></g></g><g transform="translate(279 400)"></g><g transform="translate(179 343)"></g><g transform="translate(203 303)"></g></g></svg>